<?xml version="1.0" encoding="UTF-8"?>
<!-- Generator: visioncortex VTracer 0.6.3 -->
<svg version="1.1" xmlns="http://www.w3.org/2000/svg" width="1280" height="1280">
<path d="M0 0 C0.86 -0 1.72 -0.01 2.6 -0.01 C3.54 -0.01 4.48 -0 5.44 -0 C6.43 -0 7.42 -0.01 8.44 -0.01 C11.73 -0.01 15.01 -0.01 18.29 -0.01 C20.56 -0.01 22.84 -0.01 25.11 -0.01 C29.88 -0.01 34.66 -0.01 39.43 -0 C45.55 0 51.68 -0 57.8 -0.01 C62.5 -0.01 67.2 -0.01 71.9 -0.01 C74.16 -0.01 76.41 -0.01 78.67 -0.01 C81.82 -0.01 84.98 -0.01 88.13 -0 C89.54 -0.01 89.54 -0.01 90.97 -0.01 C91.83 -0.01 92.69 -0 93.57 0 C94.32 0 95.07 0 95.83 0 C97.79 0.13 97.79 0.13 100.79 1.13 C103.54 1.31 106.28 1.45 109.04 1.56 C119.99 2.09 130.68 3.41 141.42 5.7 C143.94 6.15 146.42 6.38 148.97 6.56 C156.19 7.13 165.3 7.88 171.79 11.13 C173.02 11.23 174.26 11.33 175.54 11.44 C181.06 11.98 186.18 13.63 191.48 15.21 C194.12 15.94 196.52 16.47 199.22 16.75 C203.74 17.23 207.86 18.31 212.04 20.08 C215.34 21.34 218.66 22.13 222.1 22.94 C232.49 25.46 242.78 28.46 252.74 32.38 C255.53 33.4 258.38 34.22 261.22 35.06 C265.85 36.47 270.18 38.08 274.56 40.13 C277.03 41.24 279.54 42.16 282.1 43.06 C291.35 46.37 300.17 50.26 308.92 54.72 C311.53 56 314.13 57.09 316.85 58.13 C321.49 59.91 325.74 62.19 330.05 64.66 C333.22 66.36 336.48 67.71 339.79 69.13 C342.14 70.31 344.47 71.51 346.79 72.75 C347.43 73.1 348.07 73.44 348.73 73.79 C354.07 76.68 359.27 79.76 364.45 82.92 C367.91 85.02 371.39 87.01 374.97 88.88 C381.54 92.38 387.68 96.54 393.88 100.63 C394.72 101.18 395.55 101.73 396.41 102.3 C397.16 102.79 397.9 103.29 398.67 103.8 C400.66 105.05 402.67 106.12 404.79 107.13 C404.79 107.79 404.79 108.45 404.79 109.13 C405.47 109.36 406.16 109.6 406.86 109.85 C410.39 111.39 413.45 113.43 416.6 115.63 C417.2 116.03 417.79 116.43 418.41 116.85 C419.91 117.89 421.35 119 422.79 120.13 C422.79 120.79 422.79 121.45 422.79 122.13 C423.68 122.31 423.68 122.31 424.6 122.5 C426.79 123.13 426.79 123.13 429.79 125.13 C429.79 125.79 429.79 126.45 429.79 127.13 C430.78 127.44 430.78 127.44 431.79 127.75 C435.86 129.62 439.48 132.1 442.79 135.13 C442.79 135.79 442.79 136.45 442.79 137.13 C443.53 137.4 444.27 137.66 445.04 137.94 C447.68 139.08 449.64 140.22 451.79 142.13 C451.79 142.79 451.79 143.45 451.79 144.13 C452.41 144.44 453.02 144.75 453.66 145.06 C455.04 145.75 456.41 146.44 457.79 147.13 C457.79 147.79 457.79 148.45 457.79 149.13 C458.33 149.36 458.87 149.6 459.43 149.85 C462.42 151.47 464.9 153.48 467.54 155.63 C469.01 156.82 469.01 156.82 470.52 158.03 C471.27 158.72 472.02 159.42 472.79 160.13 C472.79 160.79 472.79 161.45 472.79 162.13 C473.32 162.35 473.86 162.58 474.41 162.81 C479.62 165.69 483.62 169.95 487.79 174.13 C489.24 175.57 490.7 177.01 492.17 178.45 C494.4 180.66 496.62 182.87 498.85 185.08 C500.02 186.24 501.2 187.41 502.38 188.57 C504.09 190.25 505.79 191.95 507.49 193.64 C508.03 194.16 508.56 194.68 509.1 195.22 C510.37 196.48 511.58 197.8 512.79 199.13 C512.79 199.79 512.79 200.45 512.79 201.13 C513.45 201.13 514.11 201.13 514.79 201.13 C516.48 202.77 516.48 202.77 518.35 204.94 C518.97 205.65 519.59 206.35 520.23 207.08 C521.79 209.13 521.79 209.13 522.79 212.13 C523.45 212.13 524.11 212.13 524.79 212.13 C526.3 213.83 527.75 215.59 529.16 217.38 C531.38 220.18 533.52 222.86 536.08 225.36 C537.79 227.13 537.79 227.13 537.79 229.13 C538.45 229.13 539.11 229.13 539.79 229.13 C542.79 232.59 542.79 232.59 542.79 235.13 C543.45 235.13 544.11 235.13 544.79 235.13 C546.08 236.72 547.3 238.38 548.47 240.06 C551.69 244.62 555.03 249.02 558.54 253.35 C559.79 255.13 559.79 255.13 559.79 257.13 C560.45 257.13 561.11 257.13 561.79 257.13 C564.08 259.69 564.79 260.61 564.79 264.13 C565.45 264.13 566.11 264.13 566.79 264.13 C568.29 266.03 568.29 266.03 569.91 268.5 C570.45 269.31 570.99 270.13 571.54 270.96 C572.79 273.13 572.79 273.13 572.79 275.13 C573.45 275.13 574.11 275.13 574.79 275.13 C577.79 279.51 577.79 279.51 577.79 282.13 C578.45 282.13 579.11 282.13 579.79 282.13 C580.33 283.1 580.87 284.08 581.43 285.08 C584.39 290.27 587.74 295.2 591.07 300.16 C591.79 301.25 591.79 301.25 592.52 302.36 C592.96 303.01 593.39 303.67 593.84 304.34 C594.79 306.13 594.79 306.13 594.79 309.13 C595.45 309.13 596.11 309.13 596.79 309.13 C597.08 309.66 597.37 310.19 597.67 310.74 C599.94 314.87 602.26 318.93 604.72 322.94 C607.44 327.43 609.79 332.03 612.09 336.74 C613.7 339.94 615.36 343.11 617.06 346.27 C623.5 358.27 629.15 370.51 634.45 383.05 C635.53 385.53 636.66 387.92 637.91 390.31 C639.92 394.2 641.34 398.25 642.8 402.37 C643.68 404.82 644.61 407.22 645.6 409.63 C650.27 421.21 654.68 432.87 657.87 444.95 C658.57 447.37 659.34 449.63 660.24 451.97 C661.87 456.23 663.1 460.54 664.29 464.94 C664.5 465.73 664.72 466.51 664.94 467.33 C665.36 468.89 665.79 470.45 666.21 472.01 C666.7 473.82 667.2 475.62 667.71 477.42 C669.03 482.18 670.23 486.92 671.25 491.75 C671.88 494.56 672.62 497.34 673.35 500.13 C674.45 504.48 675.15 508.66 675.54 513.12 C675.92 516.22 676.91 519.13 677.79 522.13 C679.18 528.57 679.99 534.95 680.51 541.51 C680.77 543.94 681.21 546.2 681.79 548.56 C682.92 553.19 683.24 557.78 683.54 562.53 C683.7 565.24 683.7 565.24 684.79 568.13 C684.92 569.58 685.01 571.04 685.07 572.51 C685.12 573.76 685.12 573.76 685.18 575.05 C685.25 576.81 685.32 578.58 685.39 580.34 C685.43 581.18 685.47 582.02 685.51 582.88 C685.54 583.65 685.57 584.41 685.6 585.2 C685.68 587.21 685.68 587.21 686.79 589.13 C686.88 590.49 686.91 591.86 686.91 593.23 C686.92 594.51 686.92 594.51 686.92 595.83 C686.92 596.77 686.92 597.71 686.92 598.69 C686.92 599.68 686.92 600.67 686.92 601.69 C686.93 604.98 686.92 608.27 686.92 611.56 C686.92 613.84 686.92 616.12 686.92 618.4 C686.92 623.18 686.92 627.97 686.92 632.75 C686.91 638.89 686.92 645.03 686.92 651.17 C686.92 655.88 686.92 660.58 686.92 665.29 C686.92 667.56 686.92 669.82 686.92 672.09 C686.93 675.25 686.92 678.41 686.92 681.57 C686.92 682.98 686.92 682.98 686.92 684.43 C686.92 685.29 686.92 686.14 686.91 687.03 C686.91 687.78 686.91 688.52 686.91 689.29 C686.79 691.13 686.79 691.13 685.79 693.13 C685.65 694.54 685.56 695.96 685.51 697.37 C685.47 698.21 685.43 699.05 685.39 699.91 C685.36 700.79 685.32 701.66 685.29 702.56 C685.22 704.29 685.15 706.02 685.07 707.75 C685.02 708.9 685.02 708.9 684.98 710.07 C684.79 712.13 684.79 712.13 683.79 715.13 C683.59 716.5 683.43 717.87 683.29 719.25 C683.16 720.44 683.16 720.44 683.04 721.64 C682.95 722.46 682.87 723.28 682.79 724.13 C682.62 725.75 682.46 727.38 682.29 729 C682.21 729.72 682.14 730.44 682.07 731.18 C681.79 733.13 681.79 733.13 680.79 736.13 C680.63 737.69 680.51 739.25 680.41 740.81 C679.99 745.84 679.22 750.74 678.29 755.69 C678.09 756.74 678.09 756.74 677.89 757.82 C676.92 762.86 676.92 762.86 675.79 765.13 C675.68 766.36 675.58 767.6 675.47 768.88 C674.93 774.25 673.38 779.19 671.83 784.35 C670.41 789.47 669.45 794.62 668.5 799.85 C667.85 802.83 666.93 805.31 665.79 808.13 C665.11 810.73 664.47 813.32 663.85 815.94 C662.68 820.77 661.43 825.45 659.55 830.06 C658.56 832.75 657.85 835.49 657.1 838.25 C653.52 851.05 648.69 863.5 643.72 875.82 C642.89 877.86 642.09 879.91 641.29 881.96 C638.56 888.97 635.6 895.69 632.15 902.38 C630.91 904.87 629.89 907.34 628.91 909.94 C626.98 914.95 624.48 919.6 621.92 924.31 C619.57 928.64 617.34 933.01 615.16 937.44 C612.75 942.32 610.14 946.97 607.28 951.6 C604.51 956.3 602.16 961.22 599.79 966.13 C599.13 966.13 598.47 966.13 597.79 966.13 C597.67 966.7 597.56 967.27 597.44 967.86 C596.72 970.35 595.71 972.22 594.38 974.44 C593.64 975.67 593.64 975.67 592.89 976.93 C592.36 977.8 591.83 978.67 591.29 979.56 C590.75 980.45 590.21 981.34 589.66 982.26 C585.8 988.6 581.74 994.75 577.43 1000.79 C575.79 1003.01 575.79 1003.01 574.79 1005.13 C574.13 1005.13 573.47 1005.13 572.79 1005.13 C572.42 1006.18 572.42 1006.18 572.04 1007.25 C570.62 1010.52 568.91 1013.27 566.79 1016.13 C566.13 1016.13 565.47 1016.13 564.79 1016.13 C564.66 1016.73 564.54 1017.32 564.41 1017.94 C563.79 1020.13 563.79 1020.13 561.79 1023.13 C561.13 1023.13 560.47 1023.13 559.79 1023.13 C559.43 1024.2 559.43 1024.2 559.06 1025.29 C557.59 1028.56 555.74 1030.84 553.41 1033.56 C550.88 1036.57 548.43 1039.49 546.35 1042.81 C545.58 1043.96 545.58 1043.96 544.79 1045.13 C544.13 1045.13 543.47 1045.13 542.79 1045.13 C542.48 1045.75 542.17 1046.36 541.85 1047 C541.16 1048.38 540.47 1049.75 539.79 1051.13 C539.13 1051.13 538.47 1051.13 537.79 1051.13 C537.56 1051.67 537.34 1052.21 537.1 1052.78 C535.37 1055.86 533.14 1058.17 530.72 1060.75 C527.37 1064.17 527.37 1064.17 524.79 1068.13 C524.13 1068.13 523.47 1068.13 522.79 1068.13 C522.52 1068.71 522.25 1069.29 521.97 1069.89 C520.77 1072.15 519.45 1073.93 517.79 1075.88 C517.27 1076.49 516.76 1077.1 516.22 1077.74 C514.79 1079.13 514.79 1079.13 512.79 1079.13 C512.57 1079.67 512.35 1080.22 512.12 1080.78 C510.35 1083.9 507.94 1086.24 505.4 1088.74 C504.6 1089.54 504.6 1089.54 503.79 1090.35 C502.66 1091.48 501.53 1092.6 500.39 1093.73 C498.68 1095.42 496.98 1097.12 495.28 1098.82 C479.49 1114.56 479.49 1114.56 474.79 1116.13 C474.79 1116.79 474.79 1117.45 474.79 1118.13 C473.09 1119.64 471.33 1121.09 469.54 1122.5 C466.73 1124.72 464.05 1126.86 461.55 1129.42 C459.79 1131.13 459.79 1131.13 457.79 1131.13 C457.79 1131.79 457.79 1132.45 457.79 1133.13 C454.33 1136.13 454.33 1136.13 451.79 1136.13 C451.79 1136.79 451.79 1137.45 451.79 1138.13 C450.19 1139.42 448.53 1140.64 446.85 1141.81 C442.3 1145.03 437.9 1148.37 433.56 1151.88 C431.79 1153.13 431.79 1153.13 429.79 1153.13 C429.79 1153.79 429.79 1154.45 429.79 1155.13 C427.23 1157.42 426.31 1158.13 422.79 1158.13 C422.79 1158.79 422.79 1159.45 422.79 1160.13 C421.02 1161.57 421.02 1161.57 418.54 1163.25 C417.17 1164.18 417.17 1164.18 415.77 1165.13 C414.78 1165.79 413.8 1166.45 412.79 1167.13 C411.33 1168.11 411.33 1168.11 409.84 1169.12 C404.08 1172.99 398.27 1176.76 392.4 1180.45 C389.1 1182.57 385.87 1184.8 382.66 1187.06 C380.79 1188.13 380.79 1188.13 377.79 1188.13 C377.79 1188.79 377.79 1189.45 377.79 1190.13 C376.14 1190.46 374.49 1190.79 372.79 1191.13 C372.79 1191.79 372.79 1192.45 372.79 1193.13 C371.66 1193.67 371.66 1193.67 370.51 1194.23 C364.62 1197.13 358.92 1200.18 353.31 1203.6 C350.52 1205.29 347.7 1206.91 344.85 1208.5 C343.95 1209 343.06 1209.51 342.13 1210.03 C339.79 1211.13 339.79 1211.13 336.79 1211.13 C336.79 1211.79 336.79 1212.45 336.79 1213.13 C336.19 1213.35 335.6 1213.57 334.99 1213.79 C330.22 1215.61 325.74 1217.63 321.29 1220.13 C317.1 1222.47 312.93 1224.36 308.45 1226.06 C305.35 1227.3 302.36 1228.7 299.35 1230.13 C294.43 1232.43 289.49 1234.41 284.37 1236.21 C281.98 1237.06 279.64 1237.98 277.29 1238.94 C265.7 1243.61 254.05 1248.01 241.96 1251.21 C239.55 1251.91 237.29 1252.67 234.95 1253.58 C230.65 1255.22 226.29 1256.48 221.85 1257.69 C221.1 1257.9 220.36 1258.11 219.59 1258.32 C214.93 1259.6 210.27 1260.71 205.53 1261.68 C203.77 1261.97 203.77 1261.97 202.79 1263.13 C201.36 1263.46 199.92 1263.74 198.47 1264 C194.51 1264.76 190.63 1265.66 186.72 1266.69 C182.37 1267.81 178.19 1268.49 173.72 1268.88 C170.94 1269.23 168.44 1270.23 165.79 1271.13 C159.1 1272.64 152.45 1273.35 145.62 1273.85 C142.37 1274.17 139.32 1274.87 136.15 1275.65 C132.27 1276.43 128.34 1276.63 124.39 1276.88 C121.68 1277.04 121.68 1277.04 118.79 1278.13 C117.33 1278.26 115.87 1278.35 114.41 1278.41 C113.15 1278.46 113.15 1278.46 111.87 1278.52 C110.1 1278.59 108.34 1278.66 106.57 1278.73 C105.73 1278.77 104.9 1278.81 104.03 1278.85 C103.27 1278.88 102.5 1278.91 101.71 1278.94 C99.7 1279.02 99.7 1279.02 97.79 1280.13 C96.42 1280.22 95.05 1280.25 93.69 1280.25 C92.4 1280.26 92.4 1280.26 91.09 1280.26 C90.14 1280.26 89.2 1280.26 88.23 1280.26 C87.24 1280.26 86.24 1280.26 85.22 1280.26 C81.93 1280.27 78.64 1280.26 75.35 1280.26 C73.07 1280.26 70.79 1280.26 68.51 1280.26 C63.73 1280.26 58.95 1280.26 54.17 1280.26 C48.03 1280.25 41.89 1280.25 35.75 1280.26 C31.04 1280.26 26.33 1280.26 21.62 1280.26 C19.36 1280.26 17.09 1280.26 14.83 1280.26 C11.67 1280.27 8.51 1280.26 5.35 1280.26 C3.93 1280.26 3.93 1280.26 2.49 1280.26 C1.63 1280.26 0.77 1280.26 -0.11 1280.25 C-0.86 1280.25 -1.61 1280.25 -2.38 1280.25 C-4.21 1280.13 -4.21 1280.13 -6.21 1279.13 C-7.62 1278.99 -9.04 1278.9 -10.46 1278.85 C-11.3 1278.81 -12.13 1278.77 -13 1278.73 C-13.87 1278.7 -14.75 1278.66 -15.65 1278.63 C-17.38 1278.56 -19.11 1278.49 -20.83 1278.41 C-21.99 1278.36 -21.99 1278.36 -23.16 1278.32 C-25.21 1278.13 -25.21 1278.13 -28.21 1277.13 C-29.58 1276.93 -30.96 1276.77 -32.34 1276.63 C-33.52 1276.5 -33.52 1276.5 -34.73 1276.38 C-35.55 1276.29 -36.37 1276.21 -37.21 1276.13 C-38.84 1275.96 -40.46 1275.8 -42.09 1275.63 C-42.81 1275.55 -43.53 1275.48 -44.27 1275.41 C-46.21 1275.13 -46.21 1275.13 -49.21 1274.13 C-50.73 1274 -52.25 1273.9 -53.78 1273.81 C-59.86 1273.32 -65.66 1272.01 -71.58 1270.59 C-75.34 1269.7 -79 1269 -82.85 1268.62 C-86.69 1268.24 -90.15 1267.41 -93.84 1266.25 C-100.17 1264.36 -106.45 1263.02 -112.94 1261.84 C-115.91 1261.19 -118.41 1260.28 -121.21 1259.13 C-123.21 1258.6 -125.21 1258.1 -127.21 1257.63 C-131.05 1256.73 -134.56 1255.59 -138.21 1254.13 C-140.08 1253.64 -141.96 1253.18 -143.84 1252.75 C-148.67 1251.57 -153.26 1250.12 -157.9 1248.36 C-161.42 1247.05 -164.96 1245.82 -168.51 1244.6 C-175.91 1242.05 -183.22 1239.41 -190.41 1236.31 C-194.56 1234.56 -198.79 1233 -203.01 1231.44 C-206.15 1230.15 -209.11 1228.7 -212.13 1227.16 C-214.86 1225.8 -217.65 1224.6 -220.45 1223.39 C-228.96 1219.72 -237.15 1215.63 -245.3 1211.22 C-248.71 1209.38 -252.17 1207.64 -255.65 1205.94 C-260.15 1203.71 -264.44 1201.26 -268.71 1198.63 C-271.36 1197.04 -274.05 1195.58 -276.78 1194.13 C-280.9 1191.9 -284.76 1189.48 -288.62 1186.84 C-293.24 1183.79 -298.01 1181 -302.76 1178.18 C-303.35 1177.83 -303.93 1177.48 -304.54 1177.11 C-306.07 1176.21 -307.62 1175.35 -309.17 1174.48 C-310.18 1173.81 -310.18 1173.81 -311.21 1173.13 C-311.21 1172.47 -311.21 1171.81 -311.21 1171.13 C-312.39 1170.66 -312.39 1170.66 -313.59 1170.19 C-316.21 1169.13 -316.21 1169.13 -318.21 1168.13 C-318.21 1167.47 -318.21 1166.81 -318.21 1166.13 C-318.73 1165.88 -319.24 1165.63 -319.78 1165.38 C-322.98 1163.73 -326.09 1161.93 -329.21 1160.13 C-329.21 1159.47 -329.21 1158.81 -329.21 1158.13 C-330.11 1157.94 -330.11 1157.94 -331.03 1157.75 C-333.21 1157.13 -333.21 1157.13 -336.21 1155.13 C-336.21 1154.47 -336.21 1153.81 -336.21 1153.13 C-336.93 1152.88 -337.65 1152.63 -338.4 1152.38 C-341.53 1150.98 -343.67 1149.29 -346.28 1147.06 C-351.35 1142.79 -356.59 1138.85 -361.97 1134.97 C-362.71 1134.36 -363.45 1133.76 -364.21 1133.13 C-364.21 1132.47 -364.21 1131.81 -364.21 1131.13 C-364.76 1130.9 -365.3 1130.68 -365.86 1130.44 C-368.95 1128.71 -371.26 1126.48 -373.84 1124.06 C-377.25 1120.71 -377.25 1120.71 -381.21 1118.13 C-381.21 1117.47 -381.21 1116.81 -381.21 1116.13 C-381.81 1115.86 -382.4 1115.6 -383.01 1115.33 C-385.29 1114.08 -386.69 1112.82 -388.46 1110.94 C-390.81 1108.46 -393.26 1106.2 -395.85 1103.98 C-400.71 1099.76 -405.24 1095.25 -409.78 1090.69 C-410.59 1089.88 -411.4 1089.07 -412.23 1088.24 C-416.56 1083.9 -420.74 1079.5 -424.72 1074.83 C-426.19 1073.09 -426.19 1073.09 -427.91 1071.53 C-429.21 1070.13 -429.21 1070.13 -429.21 1068.13 C-429.87 1068.13 -430.53 1068.13 -431.21 1068.13 C-432.73 1066.43 -434.18 1064.67 -435.59 1062.88 C-437.81 1060.07 -439.94 1057.39 -442.5 1054.89 C-444.21 1053.13 -444.21 1053.13 -444.21 1051.13 C-444.87 1051.13 -445.53 1051.13 -446.21 1051.13 C-449.21 1047.67 -449.21 1047.67 -449.21 1045.13 C-449.87 1045.13 -450.53 1045.13 -451.21 1045.13 C-452.51 1043.53 -453.72 1041.87 -454.9 1040.19 C-458.12 1035.64 -461.45 1031.24 -464.96 1026.9 C-466.21 1025.13 -466.21 1025.13 -466.21 1023.13 C-466.87 1023.13 -467.53 1023.13 -468.21 1023.13 C-470.51 1020.57 -471.21 1019.65 -471.21 1016.13 C-471.87 1016.13 -472.53 1016.13 -473.21 1016.13 C-474.72 1014.23 -474.72 1014.23 -476.34 1011.75 C-477.15 1010.53 -477.15 1010.53 -477.97 1009.29 C-479.21 1007.13 -479.21 1007.13 -479.21 1005.13 C-479.87 1005.13 -480.53 1005.13 -481.21 1005.13 C-484.21 1000.74 -484.21 1000.74 -484.21 998.13 C-484.87 998.13 -485.53 998.13 -486.21 998.13 C-486.77 997.14 -487.32 996.15 -487.89 995.14 C-490.68 990.26 -493.72 985.54 -496.77 980.82 C-497.2 980.15 -497.63 979.47 -498.07 978.77 C-498.65 977.86 -498.65 977.86 -499.24 976.94 C-500.27 975.02 -500.77 973.25 -501.21 971.13 C-501.87 971.13 -502.53 971.13 -503.21 971.13 C-503.54 969.48 -503.87 967.83 -504.21 966.13 C-504.87 966.13 -505.53 966.13 -506.21 966.13 C-506.56 965.39 -506.92 964.65 -507.28 963.89 C-509.8 958.71 -512.38 953.73 -515.59 948.94 C-518.96 943.78 -521.53 938.42 -524.08 932.82 C-526.52 927.5 -529.18 922.34 -531.96 917.19 C-534.78 911.97 -537.32 906.8 -539.4 901.22 C-540.18 899.22 -541.08 897.39 -542.09 895.5 C-544.49 890.85 -546.2 885.96 -548 881.05 C-549.33 877.43 -550.71 873.88 -552.34 870.38 C-554.35 866.01 -555.79 861.49 -557.27 856.92 C-558.04 854.65 -558.86 852.5 -559.84 850.31 C-561.29 846.96 -562.24 843.65 -563.21 840.13 C-563.93 837.92 -564.68 835.73 -565.43 833.53 C-568.13 825.21 -570.29 816.69 -572.62 808.26 C-573.12 806.45 -573.63 804.64 -574.13 802.83 C-575.45 798.08 -576.65 793.33 -577.68 788.51 C-578.31 785.69 -579.05 782.92 -579.78 780.13 C-580.88 775.78 -581.57 771.6 -581.97 767.13 C-582.35 764.03 -583.32 761.12 -584.21 758.13 C-585.66 752.04 -586.44 746.06 -586.94 739.83 C-587.2 737.29 -587.62 734.87 -588.15 732.38 C-590.41 721.67 -591.43 710.94 -591.87 700.03 C-592.01 696.84 -592.2 694.17 -593.21 691.13 C-593.3 689.72 -593.34 688.32 -593.34 686.91 C-593.34 686.06 -593.35 685.2 -593.35 684.31 C-593.35 683.38 -593.34 682.44 -593.34 681.47 C-593.34 680.48 -593.35 679.49 -593.35 678.47 C-593.35 675.19 -593.35 671.91 -593.35 668.63 C-593.35 666.35 -593.35 664.08 -593.35 661.8 C-593.35 657.03 -593.35 652.26 -593.34 647.49 C-593.34 641.36 -593.34 635.24 -593.35 629.12 C-593.35 624.42 -593.35 619.72 -593.35 615.02 C-593.35 612.76 -593.35 610.5 -593.35 608.24 C-593.35 605.09 -593.35 601.94 -593.34 598.78 C-593.34 597.84 -593.35 596.91 -593.35 595.94 C-593.35 595.08 -593.34 594.22 -593.34 593.34 C-593.34 592.59 -593.34 591.85 -593.34 591.08 C-593.21 589.13 -593.21 589.13 -592.21 586.13 C-592.03 583.37 -591.89 580.63 -591.78 577.88 C-591.25 566.93 -589.94 556.24 -587.65 545.52 C-587.17 542.89 -586.93 540.29 -586.71 537.63 C-586.19 531.1 -585.02 524.84 -583.15 518.56 C-582.42 515.88 -582.05 513.78 -581.84 511.06 C-581.34 505.8 -579.77 500.95 -578.26 495.9 C-576.84 490.78 -575.87 485.63 -574.92 480.4 C-574.28 477.42 -573.36 474.94 -572.21 472.13 C-571.53 469.55 -570.89 466.97 -570.28 464.38 C-568.49 457.06 -566.33 450.04 -563.65 443 C-562.29 439.42 -561.24 435.82 -560.21 432.13 C-558.31 425.47 -556.42 419.11 -553.14 412.99 C-552.17 411.04 -551.5 409.14 -550.84 407.06 C-547.61 396.96 -543.44 387.31 -538.58 377.89 C-537.31 375.32 -536.23 372.75 -535.21 370.06 C-533.39 365.31 -531.02 360.98 -528.48 356.57 C-527.35 354.38 -526.68 352.53 -526.21 350.13 C-525.55 350.13 -524.89 350.13 -524.21 350.13 C-524.11 349.43 -524.01 348.73 -523.91 348.01 C-523.09 344.61 -521.71 342 -520.03 338.94 C-519.39 337.79 -518.76 336.65 -518.11 335.47 C-516.02 331.79 -513.86 328.16 -511.65 324.55 C-510.22 322.13 -508.9 319.68 -507.59 317.19 C-504.67 311.77 -501.43 306.58 -498.15 301.38 C-497.64 300.57 -497.14 299.77 -496.61 298.94 C-494.3 295.3 -491.95 291.72 -489.4 288.24 C-487.11 285.3 -487.11 285.3 -486.21 282.13 C-485.55 282.13 -484.89 282.13 -484.21 282.13 C-483.75 280.95 -483.75 280.95 -483.28 279.75 C-482.21 277.13 -482.21 277.13 -481.21 275.13 C-480.55 275.13 -479.89 275.13 -479.21 275.13 C-478.97 274.43 -478.72 273.72 -478.46 273 C-477.04 269.73 -475.34 266.99 -473.21 264.13 C-472.55 264.13 -471.89 264.13 -471.21 264.13 C-471.09 263.53 -470.97 262.93 -470.84 262.31 C-470.21 260.13 -470.21 260.13 -468.21 257.13 C-467.55 257.13 -466.89 257.13 -466.21 257.13 C-465.85 256.06 -465.85 256.06 -465.49 254.97 C-464.02 251.69 -462.16 249.41 -459.84 246.69 C-457.31 243.69 -454.86 240.77 -452.78 237.44 C-452.26 236.68 -451.74 235.91 -451.21 235.13 C-450.55 235.13 -449.89 235.13 -449.21 235.13 C-448.9 234.51 -448.59 233.89 -448.28 233.25 C-447.59 231.88 -446.9 230.5 -446.21 229.13 C-445.55 229.13 -444.89 229.13 -444.21 229.13 C-443.99 228.58 -443.76 228.04 -443.53 227.48 C-441.8 224.39 -439.57 222.08 -437.15 219.5 C-433.8 216.08 -433.8 216.08 -431.21 212.13 C-430.55 212.13 -429.89 212.13 -429.21 212.13 C-428.98 211.58 -428.75 211.03 -428.51 210.47 C-426.84 207.46 -424.74 205.23 -422.4 202.71 C-421.92 202.19 -421.44 201.67 -420.94 201.13 C-415.68 195.49 -410.27 189.99 -404.81 184.54 C-403.12 182.84 -401.43 181.13 -399.74 179.43 C-398.66 178.34 -397.57 177.26 -396.49 176.17 C-395.99 175.66 -395.49 175.16 -394.97 174.63 C-391.44 171.13 -391.44 171.13 -389.21 171.13 C-389.21 170.47 -389.21 169.81 -389.21 169.13 C-383.74 164.13 -383.74 164.13 -381.21 164.13 C-381.21 163.47 -381.21 162.81 -381.21 162.13 C-380.55 162.13 -379.89 162.13 -379.21 162.13 C-379.21 161.47 -379.21 160.81 -379.21 160.13 C-377.52 158.56 -375.76 157.07 -373.96 155.63 C-372.99 154.83 -372.01 154.04 -371.01 153.22 C-368.76 151.54 -366.77 150.25 -364.21 149.13 C-364.21 148.47 -364.21 147.81 -364.21 147.13 C-360.75 144.13 -360.75 144.13 -358.21 144.13 C-358.21 143.47 -358.21 142.81 -358.21 142.13 C-356.62 140.83 -354.96 139.62 -353.28 138.44 C-348.72 135.22 -344.32 131.89 -339.99 128.38 C-338.21 127.13 -338.21 127.13 -336.21 127.13 C-336.21 126.47 -336.21 125.81 -336.21 125.13 C-333.65 122.83 -332.73 122.13 -329.21 122.13 C-329.21 121.47 -329.21 120.81 -329.21 120.13 C-327.31 118.62 -327.31 118.62 -324.84 117 C-324.03 116.46 -323.21 115.92 -322.38 115.37 C-320.21 114.13 -320.21 114.13 -318.21 114.13 C-318.21 113.47 -318.21 112.81 -318.21 112.13 C-313.83 109.13 -313.83 109.13 -311.21 109.13 C-311.21 108.47 -311.21 107.81 -311.21 107.13 C-310.22 106.57 -309.23 106.01 -308.21 105.43 C-304.19 103.13 -300.26 100.71 -296.34 98.25 C-295.63 97.81 -294.93 97.37 -294.2 96.92 C-290.57 94.64 -286.99 92.32 -283.46 89.88 C-279.22 87 -274.7 84.85 -270.09 82.62 C-267.59 81.32 -265.42 79.96 -263.15 78.31 C-258.01 74.74 -252.39 72.28 -246.73 69.67 C-241.1 67.06 -235.61 64.27 -230.15 61.31 C-224.97 58.52 -219.84 56 -214.31 53.94 C-212.31 53.16 -210.48 52.26 -208.59 51.25 C-202.67 48.2 -196.31 46.11 -190.07 43.82 C-186.93 42.65 -183.83 41.39 -180.72 40.13 C-176.56 38.47 -172.38 36.88 -168.19 35.28 C-166.3 34.55 -164.41 33.8 -162.53 33.04 C-159.48 31.84 -156.36 31.02 -153.21 30.13 C-151.01 29.4 -148.81 28.66 -146.62 27.91 C-138.3 25.21 -129.78 23.05 -121.35 20.72 C-119.54 20.22 -117.72 19.71 -115.91 19.21 C-111.16 17.89 -106.41 16.69 -101.58 15.66 C-98.84 15.04 -96.12 14.33 -93.4 13.63 C-88.43 12.37 -83.47 11.45 -78.41 10.66 C-74.84 10.07 -71.31 9.35 -67.78 8.63 C-57 6.45 -46.23 4.94 -35.3 3.82 C-31.24 3.42 -31.24 3.42 -27.23 2.62 C-25.11 2.1 -23.17 1.94 -20.99 1.85 C-19.81 1.79 -19.81 1.79 -18.61 1.73 C-16.97 1.66 -15.32 1.59 -13.68 1.52 C-12.9 1.48 -12.11 1.45 -11.3 1.41 C-10.23 1.36 -10.23 1.36 -9.14 1.32 C-5.94 1 -3.28 0 0 0 Z " fill="#000102" transform="translate(593.212890625,-0.126983642578125)"/>
<path d="M0 0 C93.32 -2.24 186.86 24.87 330.5 122.07 C331.21 122.69 331.92 123.31 332.65 123.95 C339.89 130.35 346.74 137.13 353.58 143.96 C355.56 145.94 357.54 147.91 359.53 149.88 C365.95 156.27 372.09 162.67 377.69 169.79 C379.46 172.02 381.32 174.11 383.25 176.2 C405.85 201.4 424.13 231.25 440.29 260.87 C441.41 262.9 442.54 264.92 443.67 266.94 C465.77 306.72 479.56 351.64 488.5 396.07 C488.79 397.51 488.79 397.51 489.09 398.97 C507.22 489.44 497.52 585.77 415.39 765.29 C410.21 772.9 404.66 780.26 399.06 787.57 C398.22 788.67 398.22 788.67 397.36 789.78 C392.86 795.64 388.25 801.41 383.5 807.07 C383.07 807.58 382.65 808.09 382.21 808.62 C369.45 823.9 355.92 839.1 340.78 852.07 C338.43 854.13 336.15 856.25 333.86 858.38 C319.41 871.88 303.66 883.71 287.5 895.07 C286.95 895.46 286.39 895.85 285.83 896.25 C252.02 920.18 214.53 939.07 175.68 953.27 C173.48 954.08 171.29 954.91 169.09 955.74 C160.36 958.97 150.35 959.5 141.56 956.1 C135.52 953.09 131.92 949.08 129.31 942.89 C127.62 937.01 127.96 930.91 128 924.85 C128 923.32 127.99 921.79 127.98 920.27 C127.97 916.99 127.97 913.71 127.98 910.44 C128 905.24 127.98 900.04 127.97 894.85 C127.94 884.73 127.93 874.62 127.94 864.51 C127.94 851.67 127.93 838.84 127.89 826 C127.87 821.69 127.87 817.38 127.88 813.07 C128.05 787.92 128.05 787.92 124.5 763.07 C124.15 761.46 124.15 761.46 123.8 759.82 C123.23 757.33 122.59 754.9 121.87 752.45 C121.5 751.15 121.5 751.15 121.11 749.82 C117.03 736.59 110.29 725.37 101.56 714.71 C99.85 712.52 98.6 710.6 97.5 708.07 C99.2 706.37 101.51 706.58 103.84 706.27 C104.97 706.12 106.1 705.97 107.27 705.82 C108.5 705.65 109.73 705.49 111 705.32 C147.05 700.32 183.21 692.4 215.5 675.07 C216.44 674.59 217.39 674.11 218.36 673.62 C231.9 666.62 244.28 657.34 255.5 647.07 C256.03 646.58 256.56 646.1 257.11 645.6 C281.27 623.17 296.76 594.29 306.5 563.07 C306.85 561.96 306.85 561.96 307.2 560.83 C319.73 519.68 323.88 469.54 315.5 427.07 C315.25 425.77 315.25 425.77 314.99 424.43 C309.33 395.73 296.8 365.22 276.41 343.74 C269.55 336.49 269.55 336.49 269.41 332.52 C270.12 329.95 270.12 329.95 271.22 327.26 C272.84 323.21 273.72 319.14 274.62 314.88 C274.79 314.13 274.96 313.39 275.14 312.62 C276.86 304.89 277.66 297.36 277.7 289.46 C277.71 288.66 277.72 287.86 277.72 287.04 C277.91 259.1 276.57 230.54 263.5 205.07 C261.14 202.72 254.81 203.76 251.54 203.76 C212.34 204.36 172.52 227.37 140.83 248.56 C139.52 249.42 139.52 249.42 138.19 250.3 C137.05 251.06 137.05 251.06 135.88 251.85 C130.4 254.66 125.73 254 119.95 252.56 C118.47 252.21 116.98 251.86 115.49 251.52 C114.72 251.33 113.95 251.15 113.15 250.96 C109.07 249.98 104.99 249.06 100.9 248.14 C100.09 247.96 99.27 247.77 98.44 247.59 C87.53 245.16 76.58 243.43 65.5 242.07 C64.34 241.92 63.18 241.77 61.99 241.62 C24.87 237.03 -13.41 237.29 -50.5 242.07 C-51.64 242.22 -52.79 242.36 -53.96 242.51 C-71.35 244.78 -88.92 247.89 -105.8 252.73 C-111.13 254.26 -115.43 254.65 -120.49 252.05 C-122.75 250.68 -124.94 249.24 -127.13 247.76 C-128.82 246.65 -130.52 245.55 -132.22 244.46 C-133.53 243.61 -133.53 243.61 -134.86 242.75 C-161.67 225.69 -190.34 212.15 -221.47 205.51 C-222.97 205.18 -224.47 204.83 -225.97 204.45 C-230.17 203.82 -234.38 203.85 -238.63 203.82 C-239.53 203.8 -240.44 203.78 -241.37 203.76 C-242.68 203.75 -242.68 203.75 -244.01 203.74 C-245.19 203.73 -245.19 203.73 -246.4 203.71 C-249.08 204.17 -249.87 204.92 -251.5 207.07 C-252.46 209.09 -252.46 209.09 -253.15 211.37 C-253.43 212.23 -253.71 213.1 -254 213.99 C-254.43 215.39 -254.43 215.39 -254.88 216.82 C-255.18 217.79 -255.48 218.75 -255.79 219.75 C-261.7 239.11 -264.76 257.88 -264.88 278.07 C-264.88 279.26 -264.88 279.26 -264.89 280.47 C-264.92 296.43 -263.13 311.79 -257.83 326.93 C-255.83 332.9 -255.83 332.9 -256.5 336.07 C-258.02 338.14 -259.51 339.9 -261.25 341.76 C-299.46 384.91 -308.1 440.44 -305.19 496 C-302.12 542.48 -289.47 594.66 -257.5 630.07 C-256.77 630.9 -256.05 631.74 -255.3 632.6 C-253.07 635.13 -250.8 637.61 -248.5 640.07 C-247.77 640.87 -247.03 641.67 -246.27 642.5 C-234.81 654.52 -220.77 663.72 -206.5 672.07 C-205.9 672.43 -205.29 672.78 -204.66 673.15 C-170.53 692.88 -128.99 702.52 -90.13 706.61 C-87.5 707.07 -87.5 707.07 -84.5 709.07 C-85.96 712.33 -87.81 714.74 -90.13 717.45 C-101.49 731.51 -107.91 747.76 -111.64 765.29 C-113.76 774.6 -113.76 774.6 -116.87 776.57 C-120.4 777.79 -123.93 778.99 -127.5 780.07 C-128.21 780.29 -128.92 780.51 -129.65 780.74 C-157.87 789.37 -188.78 790.11 -215.5 776.2 C-230.63 767.62 -244.26 754.78 -253.5 740.07 C-261.62 727.02 -261.62 727.02 -271.43 715.25 C-273.5 713.07 -273.5 713.07 -275.87 710.14 C-288.94 694.34 -310.12 685.86 -329.97 683.29 C-338.15 682.78 -345.88 684.07 -352.5 689.07 C-353.87 691.56 -353.6 692.64 -353 695.38 C-348.79 702.94 -341.56 707.18 -334.56 711.88 C-328.73 715.82 -323.56 720.17 -318.5 725.07 C-317.42 726.04 -317.42 726.04 -316.32 727.03 C-308.77 734.06 -303.23 742.57 -297.5 751.07 C-296.82 752.07 -296.13 753.06 -295.43 754.09 C-289.75 762.61 -285.5 771.89 -281.79 781.42 C-278.34 790.27 -274.69 797.72 -268.5 805.07 C-267.8 805.92 -267.1 806.77 -266.38 807.65 C-245.95 831.42 -216.37 843.88 -185.6 846.84 C-162.29 848.55 -139.39 846.41 -116.5 842.07 C-114.79 845.49 -115.34 849.4 -115.32 853.17 C-115.32 854.11 -115.31 855.05 -115.3 856.03 C-115.28 859.16 -115.27 862.29 -115.26 865.42 C-115.26 866.49 -115.26 867.56 -115.25 868.66 C-115.23 874.33 -115.22 879.99 -115.21 885.65 C-115.2 891.5 -115.16 897.34 -115.12 903.18 C-115.09 907.68 -115.09 912.18 -115.08 916.68 C-115.08 918.83 -115.07 920.98 -115.05 923.14 C-115.02 926.16 -115.02 929.18 -115.03 932.2 C-115.01 933.52 -115.01 933.52 -114.99 934.88 C-115.05 941.68 -116.84 946.79 -121.14 952.09 C-127.58 957.5 -133.57 958.28 -141.81 958.34 C-149.97 957.53 -157.57 954.35 -165.19 951.51 C-166.38 951.07 -167.57 950.62 -168.79 950.17 C-201.84 937.73 -234.86 921.82 -263.6 901.13 C-265.99 899.43 -268.41 897.78 -270.85 896.13 C-280.72 889.47 -290.26 882.59 -299.5 875.07 C-300.48 874.29 -301.45 873.51 -302.45 872.7 C-307.85 868.35 -313.06 863.84 -318.19 859.17 C-320.17 857.38 -322.17 855.62 -324.19 853.88 C-336.04 843.5 -347.13 832.52 -357.79 820.93 C-359.23 819.37 -360.68 817.81 -362.12 816.26 C-367.82 810.08 -372.96 803.51 -378.1 796.87 C-379.46 795.12 -380.84 793.39 -382.22 791.66 C-398.35 771.5 -412.27 749.81 -424.5 727.07 C-425.27 725.65 -425.27 725.65 -426.05 724.21 C-474.53 634.16 -494.23 529.46 -465.57 356.61 C-459.35 335.97 -452.25 315.79 -443.5 296.07 C-443.08 295.12 -442.67 294.16 -442.24 293.17 C-431.89 269.5 -419.88 246.56 -405.5 225.07 C-405.05 224.39 -404.6 223.71 -404.13 223.01 C-400.98 218.32 -397.76 213.69 -394.5 209.07 C-393.98 208.33 -393.46 207.59 -392.92 206.82 C-386.84 198.22 -380.67 189.8 -373.82 181.79 C-371.54 179.11 -369.33 176.38 -367.13 173.63 C-363.89 169.68 -360.55 165.86 -357.09 162.11 C-356.57 161.56 -356.06 161 -355.53 160.42 C-349.89 154.36 -344.09 148.47 -338.24 142.62 C-336.43 140.81 -334.63 139 -332.84 137.18 C-326.75 131.06 -320.61 125.27 -313.82 119.92 C-311.58 118.14 -309.48 116.27 -307.38 114.32 C-282.6 92.16 -253.39 74.02 -224.12 58.47 C-221.72 57.19 -219.33 55.87 -216.94 54.55 C-197.24 43.74 -176.21 34.82 -154.86 27.85 C-152.42 27.04 -149.99 26.2 -147.56 25.34 C-133.42 20.42 -119.05 16.6 -104.5 13.07 C-103.54 12.84 -102.58 12.6 -101.59 12.36 C-68.25 4.34 -34.22 0.97 0 0 Z " fill="#FAFDFF" transform="translate(632.50146484375,159.92919921875)"/>
<path d="M0 0 C3.37 2.51 4.72 4.13 6 8.12 C6 11 6 11 4.79 12.64 C1.87 14.86 -0.79 14.58 -4.35 14.5 C-8.8 13.66 -11.76 11.04 -15 8 C-14.5 4.34 -13.98 2.29 -11 0 C-7.14 -1.29 -3.87 -1.09 0 0 Z " fill="#FAFDFF" transform="translate(431,949)"/>
<path d="M0 0 C3.1 2.31 4.7 3.77 5.62 7.56 C5 10 5 10 3.19 12.31 C-1.49 14.79 -5.81 14.81 -11 14 C-14.19 12 -14.19 12 -16 10 C-14.53 4.5 -14.53 4.5 -12.06 2.19 C-8.01 -0.15 -4.61 -0.48 0 0 Z " fill="#FAFDFF" transform="translate(509,950)"/>
<path d="M0 0 C3.41 2.43 5.68 4.52 8 8 C8.31 10.72 8.13 13.24 8 16 C7 17 7 17 3.44 17.44 C-1.18 17.38 -3.94 15.63 -7.43 12.72 C-9.72 10.21 -10.15 8.37 -10 5 C-8.17 -0.2 -5.25 -0.61 0 0 Z " fill="#FAFDFF" transform="translate(393,927)"/>
<path d="M0 0 C3.51 2.49 4.78 3.9 5.62 8.12 C5 11 5 11 3 12.88 C-1.54 14.58 -5.61 15.04 -10.07 13.1 C-11.76 12.14 -13.39 11.08 -15 10 C-14.82 5.96 -14.46 4.42 -11.44 1.62 C-6.98 -0.48 -4.89 -0.7 0 0 Z " fill="#FAFDFF" transform="translate(471,955)"/>
<path d="M0 0 C4 1.36 6.16 3.4 8.12 7.06 C8.93 9.89 9.08 12.06 9.12 15.06 C7.12 17.06 7.12 17.06 4.38 17.44 C0.27 16.96 -1.73 15.71 -4.88 13.06 C-6.54 10.24 -6.92 8.7 -6.69 5.44 C-5.33 1.45 -4.34 0.09 0 0 Z " fill="#FAFDFF" transform="translate(366.875,898.9375)"/>
<path d="M0 0 C3.8 1.35 5.02 2.56 7 6.06 C7.31 9.81 7.31 9.81 7 13.06 C6 14.06 6 14.06 3.31 14.44 C-1.16 13.93 -2.93 12.28 -6 9.06 C-7.12 6.5 -7.12 6.5 -7 4.06 C-4.89 0.86 -3.87 0.08 0 0 Z " fill="#FAFDFF" transform="translate(348,873.9375)"/>
<path d="M0 0 C2.43 2.27 2.96 3.42 3.19 6.75 C3.13 7.49 3.06 8.24 3 9 C-4.26 9.49 -4.26 9.49 -8 7 C-8.66 6.34 -9.32 5.68 -10 5 C-7.85 -0.98 -6.25 -1.66 0 0 Z " fill="#FAFDFF" transform="translate(331,858)"/>
</svg>
