<?xml version="1.0" encoding="UTF-8"?>
<!-- Generator: visioncortex VTracer 0.6.3 -->
<svg version="1.1" xmlns="http://www.w3.org/2000/svg" width="1280" height="615">
<path d="M0 0 C0.5 1.49 0.5 1.49 1 3 C2.14 2.5 2.14 2.5 3.31 2 C8.35 0.64 15.17 -0.42 20 2 C20.11 8.1 19.99 13.97 19 20 C18.67 20.33 18.34 20.66 18 21 C17.89 22.86 17.85 24.72 17.84 26.59 C17.83 27.8 17.82 29.01 17.81 30.26 C17.81 31.62 17.8 32.98 17.79 34.33 C17.79 35.75 17.78 37.17 17.76 38.59 C17.74 42.45 17.72 46.32 17.7 50.18 C17.67 54.21 17.65 58.25 17.62 62.28 C17.57 69.92 17.53 77.56 17.48 85.21 C17.43 93.91 17.38 102.6 17.32 111.3 C17.21 129.2 17.1 147.1 17 165 C17.66 165 18.32 165 19 165 C19.11 166.58 19.19 168.17 19.25 169.75 C19.3 170.63 19.34 171.51 19.39 172.42 C18.86 175.92 17.79 176.86 15 179 C12.38 179.4 10.18 179.56 7.57 179.53 C6.85 179.54 6.14 179.54 5.4 179.54 C3.89 179.55 2.38 179.54 0.87 179.52 C-1.43 179.5 -3.72 179.52 -6.03 179.55 C-7.49 179.54 -8.96 179.54 -10.43 179.53 C-11.12 179.54 -11.8 179.55 -12.5 179.56 C-15.97 179.49 -17.93 179.04 -20.89 177.2 C-23.6 174.37 -24.2 171.79 -25 168 C-28.56 168.58 -30.25 169.9 -32.81 172.38 C-40.43 179.27 -49.77 181.38 -59.81 181.31 C-60.6 181.31 -61.4 181.31 -62.21 181.3 C-70.72 181.14 -77.53 179.06 -85 175 C-85.66 174.69 -86.32 174.38 -87 174.06 C-91.07 172.15 -93.9 170.32 -97 167 C-99.13 165.76 -99.13 165.76 -101 165 C-101 164.01 -101 163.02 -101 162 C-101.99 161.67 -102.98 161.34 -104 161 C-110.97 152.13 -113.84 143.14 -115.57 132.19 C-115.78 130.03 -115.78 130.03 -117 129 C-117.25 125.63 -117.19 122.25 -117.19 118.88 C-117.2 117.94 -117.21 117 -117.22 116.03 C-117.24 110.58 -116.71 106.17 -115 101 C-114.79 99.57 -114.62 98.13 -114.5 96.69 C-114 93 -114 93 -112 91 C-111.24 89.38 -110.54 87.73 -109.88 86.06 C-109.52 85.19 -109.17 84.31 -108.8 83.41 C-107.84 80.95 -107.84 80.95 -108 78 C-106.37 76.62 -104.69 75.3 -103 74 C-101.91 72.94 -100.83 71.86 -99.77 70.77 C-99.22 70.19 -98.66 69.62 -98.09 69.03 C-96.93 67.83 -95.79 66.63 -94.64 65.43 C-94.09 64.86 -93.53 64.29 -92.96 63.7 C-92.46 63.18 -91.97 62.66 -91.45 62.13 C-90 61 -90 61 -87 61 C-83.84 59.74 -83.84 59.74 -82 57 C-79.97 56.33 -79.97 56.33 -77.5 55.81 C-76.69 55.63 -75.87 55.45 -75.03 55.27 C-74.36 55.18 -73.69 55.09 -73 55 C-72.67 55.33 -72.34 55.66 -72 56 C-70.34 56.04 -68.67 56.01 -67 55.96 C-65.97 55.94 -64.93 55.91 -63.87 55.89 C-61.7 55.84 -59.53 55.78 -57.36 55.7 C-47.77 55.54 -41.11 57.78 -33.2 63.15 C-32.41 63.68 -31.62 64.22 -30.8 64.77 C-30.21 65.18 -29.61 65.58 -29 66 C-29.01 65.27 -29.02 64.54 -29.03 63.79 C-29.11 56.92 -29.17 50.05 -29.21 43.18 C-29.23 39.65 -29.26 36.12 -29.3 32.58 C-29.35 28.52 -29.37 24.46 -29.39 20.39 C-29.42 18.5 -29.42 18.5 -29.45 16.56 C-29.45 14.79 -29.45 14.79 -29.45 12.98 C-29.46 11.95 -29.47 10.91 -29.48 9.84 C-28.87 6.24 -27.55 4.57 -25 2 C-22.25 1.43 -22.25 1.43 -19.14 1.51 C-18.03 1.53 -16.91 1.54 -15.76 1.56 C-14.02 1.62 -14.02 1.62 -12.25 1.69 C-10.49 1.72 -10.49 1.72 -8.69 1.76 C-5.79 1.81 -2.9 1.9 0 2 C0 1.34 0 0.68 0 0 Z M-60 99 C-60.66 98.67 -61.32 98.34 -62 98 C-62.65 99.14 -62.65 99.14 -63.31 100.31 C-64.76 102.61 -66.11 104.11 -68 106 C-70.38 109.63 -70.24 112.86 -70.19 117.12 C-70.18 118.37 -70.17 119.61 -70.17 120.88 C-70.21 123.91 -70.21 123.91 -69 126 C-69.66 126.33 -70.32 126.66 -71 127 C-70.01 127.33 -69.02 127.66 -68 128 C-67.3 129.09 -66.6 130.19 -65.88 131.31 C-62.86 135.72 -59.14 137.71 -54 139 C-51.49 138.98 -49.47 138.56 -47 138 C-46.5 138.5 -46.5 138.5 -46 139 C-39.41 136.96 -33.67 135.16 -30 129 C-27.39 121.19 -27.4 112.81 -30 105 C-31.72 103.4 -31.72 103.4 -33.81 101.94 C-34.5 101.43 -35.19 100.92 -35.89 100.4 C-40.47 97.36 -43.4 96.73 -49 96.75 C-50.83 96.74 -50.83 96.74 -52.69 96.73 C-55.81 96.98 -57.33 97.54 -60 99 Z M-64 98 C-64.33 98.66 -64.66 99.32 -65 100 C-64.34 100 -63.68 100 -63 100 C-63.33 99.34 -63.66 98.68 -64 98 Z M-68 102 C-67 104 -67 104 -67 104 Z M-37 170 C-37.33 170.99 -37.66 171.98 -38 173 C-37.01 172.67 -36.02 172.34 -35 172 C-35.66 171.34 -36.32 170.68 -37 170 Z M16 173 C17 175 17 175 17 175 Z " fill="#F8FAFA" transform="translate(792,189)"/>
<path d="M0 0 C0.72 0 1.44 0.01 2.17 0.01 C2.91 0.01 3.65 0.01 4.42 0.01 C5.98 0.01 7.55 0.01 9.12 0.02 C11.51 0.03 13.9 0.02 16.29 0 C17.81 0.01 19.34 0.01 20.86 0.01 C21.57 0.01 22.29 0 23.02 0 C26.98 0.04 30.27 0.23 33.72 2.28 C35.09 6.31 34.77 10.39 34.67 14.59 C34.65 16.26 34.63 17.93 34.61 19.6 C34.57 22.21 34.53 24.82 34.47 27.43 C34.23 38.6 34.25 48.09 40.34 57.89 C41.9 60.6 41.98 62.2 41.72 65.28 C42.71 65.28 43.7 65.28 44.72 65.28 C44.94 66.08 45.17 66.89 45.41 67.72 C45.84 68.56 46.27 69.41 46.72 70.28 C49.27 71.17 49.27 71.17 51.72 71.28 C52.01 70.47 52.3 69.67 52.59 68.84 C53.72 66.28 53.72 66.28 55.72 65.28 C56.21 63.79 56.21 63.79 56.72 62.28 C56.06 61.95 55.4 61.62 54.72 61.28 C55.38 61.28 56.04 61.28 56.72 61.28 C57.87 59.35 57.87 59.35 57.72 57.28 C57.72 56.62 57.72 55.96 57.72 55.28 C58.71 54.95 59.7 54.62 60.72 54.28 C62.28 51.14 61.82 47.81 61.78 44.38 C61.78 43.58 61.77 42.79 61.77 41.97 C61.75 38.58 61.72 35.2 61.7 31.81 C61.51 6.01 61.51 6.01 64.72 0.28 C69.93 0.2 75.15 0.15 80.36 0.11 C82.14 0.1 83.91 0.08 85.68 0.05 C88.23 0.02 90.78 -0 93.33 -0.02 C94.12 -0.03 94.92 -0.05 95.74 -0.06 C101.23 -0.06 101.23 -0.06 103.42 1.47 C105.16 3.9 105.11 5.51 105.15 8.48 C105.17 9.54 105.19 10.61 105.21 11.7 C105.22 12.84 105.22 13.99 105.23 15.16 C105.25 16.34 105.27 17.51 105.28 18.72 C105.34 22.47 105.37 26.22 105.41 29.97 C105.44 32.51 105.47 35.04 105.51 37.58 C105.59 43.82 105.66 50.05 105.72 56.28 C106.38 56.28 107.04 56.28 107.72 56.28 C108.21 59.25 108.21 59.25 108.72 62.28 C109.38 62.28 110.04 62.28 110.72 62.28 C111.21 64.75 111.21 64.75 111.72 67.28 C112.38 67.28 113.04 67.28 113.72 67.28 C114.4 68.52 114.4 68.52 115.09 69.78 C115.63 70.6 116.17 71.43 116.72 72.28 C118.04 72.28 119.36 72.28 120.72 72.28 C121.05 70.63 121.38 68.98 121.72 67.28 C122.38 67.28 123.04 67.28 123.72 67.28 C123.72 65.63 123.72 63.98 123.72 62.28 C124.71 61.95 125.7 61.62 126.72 61.28 C126.72 59.3 126.72 57.32 126.72 55.28 C127.38 54.95 128.04 54.62 128.72 54.28 C129.05 53.29 129.38 52.3 129.72 51.28 C130.38 51.28 131.04 51.28 131.72 51.28 C131.47 50.35 131.47 50.35 131.21 49.41 C130.51 44.99 130.69 40.69 130.8 36.23 C130.82 35.27 130.85 34.31 130.87 33.31 C130.91 31.28 130.96 29.24 131.01 27.21 C131.09 24.09 131.16 20.97 131.23 17.85 C131.27 15.87 131.32 13.9 131.37 11.92 C131.39 10.99 131.41 10.05 131.43 9.08 C131.46 7.79 131.46 7.79 131.5 6.46 C131.52 5.7 131.53 4.94 131.55 4.16 C131.72 2.28 131.72 2.28 132.72 0.28 C137.77 0.2 142.82 0.15 147.88 0.11 C149.6 0.1 151.32 0.08 153.04 0.05 C155.51 0.02 157.98 -0 160.45 -0.02 C161.22 -0.03 161.99 -0.05 162.78 -0.06 C165.93 -0.06 168.32 0.08 171.16 1.5 C176.8 7.93 175.02 20.94 174.97 28.9 C174.96 30.22 174.96 31.54 174.95 32.9 C174.75 55.19 174.75 55.19 171.72 64.28 C171.06 64.28 170.4 64.28 169.72 64.28 C169.39 66.26 169.06 68.24 168.72 70.28 C167.73 70.61 166.74 70.94 165.72 71.28 C165.02 72.59 164.35 73.93 163.72 75.28 C162.73 75.77 162.73 75.77 161.72 76.28 C161.01 78.26 160.35 80.27 159.72 82.28 C156.03 92.67 151.14 101.23 143.45 109.17 C141.58 111.45 140.8 113.55 139.72 116.28 C136.89 119.32 133.66 122.17 129.41 122.41 C128.47 122.41 127.53 122.41 126.56 122.41 C125.03 122.41 125.03 122.41 123.46 122.41 C122.39 122.41 121.32 122.41 120.22 122.4 C118.61 122.41 118.61 122.41 116.97 122.41 C115.95 122.41 114.93 122.41 113.87 122.41 C112.93 122.41 111.99 122.41 111.02 122.41 C108.72 122.28 108.72 122.28 106.72 121.28 C106.72 120.62 106.72 119.96 106.72 119.28 C106.1 119.2 105.48 119.11 104.84 119.03 C102.72 118.28 102.72 118.28 101.78 116.53 C101.43 115.79 101.08 115.04 100.72 114.28 C99.91 113.49 99.11 112.71 98.28 111.9 C95.61 109.16 94.39 106.69 92.72 103.28 C92.1 102.7 91.48 102.12 90.84 101.53 C87.51 98 85.75 93.65 83.72 89.28 C79.77 90.74 78.7 92.65 76.97 96.4 C76.54 97.31 76.11 98.22 75.67 99.16 C75.2 100.21 75.2 100.21 74.72 101.28 C73.4 101.28 72.08 101.28 70.72 101.28 C70.66 102.27 70.59 103.26 70.53 104.28 C69.63 110.6 65.54 116.23 60.72 120.28 C56.01 123.07 51.31 122.72 45.97 122.78 C45 122.82 44.04 122.86 43.05 122.9 C35.87 122.98 31.85 121.29 26.72 116.28 C23.2 112.38 20.38 108.28 18.72 103.28 C18.06 103.28 17.4 103.28 16.72 103.28 C10.86 95.52 6.99 85.98 2.72 77.28 C1.29 74.39 -0.1 71.58 -1.78 68.84 C-3.6 65.74 -4.91 62.59 -6.28 59.28 C-6.61 58.62 -6.94 57.96 -7.28 57.28 C-7.51 55.3 -7.69 53.32 -7.84 51.34 C-7.93 50.28 -8.01 49.22 -8.1 48.13 C-8.22 46.18 -8.28 44.23 -8.28 42.28 C-8.29 40.28 -8.31 38.28 -8.32 36.28 C-8.33 33.8 -8.34 31.32 -8.34 28.84 C-8.35 27.62 -8.36 26.4 -8.37 25.14 C-8.41 8.62 -8.41 8.62 -7.28 2.28 C-4.81 -0.2 -3.38 0.03 0 0 Z M35.72 54.28 C36.72 56.28 36.72 56.28 36.72 56.28 Z M105.72 57.28 C106.72 59.28 106.72 59.28 106.72 59.28 Z M148.72 99.28 C149.72 101.28 149.72 101.28 149.72 101.28 Z M63.72 110.28 C63.72 111.27 63.72 112.26 63.72 113.28 C64.38 112.95 65.04 112.62 65.72 112.28 C65.72 111.62 65.72 110.96 65.72 110.28 C65.06 110.28 64.4 110.28 63.72 110.28 Z M136.72 113.28 C136.72 114.27 136.72 115.26 136.72 116.28 C137.38 115.95 138.04 115.62 138.72 115.28 C138.72 114.62 138.72 113.96 138.72 113.28 C138.06 113.28 137.4 113.28 136.72 113.28 Z M57.72 116.28 C57.39 117.27 57.06 118.26 56.72 119.28 C57.71 118.95 58.7 118.62 59.72 118.28 C59.06 117.62 58.4 116.96 57.72 116.28 Z " fill="#F8FAFA" transform="translate(102.28218078613281,245.72210693359375)"/>
<path d="M0 0 C0.66 0.33 1.32 0.66 2 1 C3.77 1.13 5.54 1.2 7.3 1.25 C8.89 1.3 8.89 1.3 10.51 1.35 C12.75 1.41 14.98 1.46 17.21 1.52 C18.81 1.57 18.81 1.57 20.43 1.62 C21.89 1.66 21.89 1.66 23.37 1.7 C26.07 2.01 27.65 2.7 30 4 C31.11 4.29 32.23 4.58 33.38 4.88 C37.19 6.06 39.76 7.7 43 10 C43.68 10.31 44.36 10.62 45.06 10.94 C47.88 12.48 49.8 14.69 52 17 C52.6 17.54 53.2 18.07 53.81 18.62 C55 20 55 20 55 23 C56.49 23.5 56.49 23.5 58 24 C59.54 25.67 59.54 25.67 61.06 27.75 C61.57 28.43 62.08 29.1 62.6 29.8 C65.89 34.98 66.59 40.18 67.44 46.16 C67.83 48.93 67.83 48.93 69.05 50.89 C70.49 54.09 70.21 57.31 70.12 60.75 C70.12 61.45 70.11 62.14 70.1 62.86 C70.07 64.58 70.04 66.29 70 68 C68.51 68.5 68.51 68.5 67 69 C67 70.98 67 72.96 67 75 C62.79 76.56 59.1 77.31 54.62 77.56 C53.4 77.64 52.18 77.71 50.92 77.79 C49.63 77.86 48.33 77.93 47 78 C44.31 78.16 41.61 78.33 38.92 78.5 C38.25 78.54 37.58 78.58 36.89 78.62 C30.69 79.01 24.5 79.5 18.31 80.06 C17.41 80.14 16.5 80.22 15.56 80.3 C14.73 80.38 13.91 80.46 13.05 80.54 C11.98 80.63 11.98 80.63 10.88 80.73 C8.78 80.97 8.78 80.97 6 82 C4.27 82.07 2.54 82.08 0.81 82.06 C-0.54 82.05 -0.54 82.05 -1.92 82.04 C-2.61 82.02 -3.29 82.01 -4 82 C-2.01 88.33 2.24 91.98 8 95 C12.08 97.09 14.55 97.03 19 96 C19 96.66 19 97.32 19 98 C24.94 97.5 24.94 97.5 31 97 C31 96.34 31 95.68 31 95 C33.31 95 35.62 95 38 95 C38.5 93.51 38.5 93.51 39 92 C39.66 92 40.32 92 41 92 C41 91.34 41 90.68 41 90 C41.66 90.33 42.32 90.66 43 91 C43.33 90.67 43.66 90.34 44 90 C46.96 88.52 49.74 88.94 53 89 C53.66 90.32 54.32 91.64 55 93 C55.66 93 56.32 93 57 93 C57 93.66 57 94.32 57 95 C57.66 95 58.32 95 59 95 C59.29 95.97 59.58 96.94 59.88 97.94 C60.64 101.11 60.64 101.11 63 102 C65.29 106.5 66.6 109.86 66 115 C65.34 115.66 64.68 116.32 64 117 C64 116.34 64 115.68 64 115 C63.01 115.99 62.02 116.98 61 118 C61.66 118.33 62.32 118.66 63 119 C51.5 127.68 51.5 127.68 44 127 C44 127.66 44 128.32 44 129 C35.5 131.84 27.33 132.33 18.44 132.38 C17.4 132.39 16.36 132.4 15.29 132.42 C5.59 132.36 -3.65 130.72 -12.18 125.96 C-14.07 124.92 -14.07 124.92 -16.45 124.05 C-26.59 119.89 -35.12 111.78 -40 102 C-40.37 100.68 -40.72 99.35 -41 98 C-41.66 98 -42.32 98 -43 98 C-43.2 95.95 -43.39 93.9 -43.59 91.85 C-43.79 90.93 -43.79 90.93 -44 90 C-44.66 89.67 -45.32 89.34 -46 89 C-46.6 87.04 -46.6 87.04 -47.06 84.62 C-47.58 81.98 -48.14 79.57 -49 77 C-49.08 75.08 -49.11 73.16 -49.1 71.24 C-49.09 70.12 -49.09 69 -49.09 67.85 C-49.08 66.68 -49.07 65.52 -49.06 64.31 C-49.06 62.54 -49.06 62.54 -49.05 60.74 C-49.04 57.83 -49.02 54.91 -49 52 C-48.01 51.5 -48.01 51.5 -47 51 C-46.86 49.99 -46.71 48.98 -46.56 47.94 C-46.11 44.79 -45.57 42.58 -44.44 39.69 C-42.88 36.35 -42.88 36.35 -43 34 C-41.99 31.32 -41.38 30.22 -38.88 28.75 C-38.26 28.5 -37.64 28.25 -37 28 C-37 27.34 -37 26.68 -37 26 C-36.34 26 -35.68 26 -35 26 C-35.27 25.46 -35.55 24.92 -35.83 24.36 C-36 22 -36 22 -33.76 19.2 C-32.75 18.21 -31.72 17.22 -30.69 16.25 C-30.18 15.74 -29.66 15.24 -29.13 14.71 C-25.29 11 -25.29 11 -23 11 C-23 10.34 -23 9.68 -23 9 C-22.01 9.33 -21.02 9.66 -20 10 C-19.67 9.34 -19.34 8.68 -19 8 C-18.34 8 -17.68 8 -17 8 C-16.67 7.01 -16.34 6.02 -16 5 C-15.5 5.99 -15.5 5.99 -15 7 C-13.35 5.68 -11.7 4.36 -10 3 C-10 3.66 -10 4.32 -10 5 C-7.36 4.67 -4.72 4.34 -2 4 C-2 3.34 -2 2.68 -2 2 C-1.34 2 -0.68 2 0 2 C0 1.34 0 0.68 0 0 Z M3 34 C3 34.66 3 35.32 3 36 C1.58 36.09 1.58 36.09 0.12 36.19 C-1.42 36.59 -1.42 36.59 -3 37 C-4.26 39.14 -4.26 39.14 -5 42 C-5.69 43.34 -6.4 44.67 -7.12 46 C-8.73 49.14 -9.45 51.41 -9 55 C-8.34 55 -7.68 55 -7 55 C-7 55.66 -7 56.32 -7 57 C-5.56 57.05 -4.13 57.09 -2.69 57.12 C-1.89 57.15 -1.09 57.17 -0.26 57.2 C2.28 57.16 2.28 57.16 5 55 C7.48 54.59 7.48 54.59 10.19 54.38 C11.09 54.3 11.99 54.23 12.92 54.15 C13.61 54.1 14.29 54.05 15 54 C15 53.34 15 52.68 15 52 C18.3 51.67 21.6 51.34 25 51 C25.98 47.87 26.19 46.44 24.88 43.38 C22.81 40.76 20.87 39.65 18 38 C17.37 36.97 17.37 36.97 16.73 35.93 C15.1 33.69 15.1 33.69 12.08 33.61 C10.46 33.68 10.46 33.68 8.81 33.75 C7.73 33.79 6.64 33.82 5.52 33.86 C4.69 33.91 3.86 33.95 3 34 Z M-6 82 C-5 85 -5 85 -5 85 Z M33 127 C32.67 127.99 32.34 128.98 32 130 C32.99 129.67 33.98 129.34 35 129 C34.34 128.34 33.68 127.68 33 127 Z " fill="#F7F9F9" transform="translate(873,238)"/>
<path d="M0 0 C1.17 0.01 1.17 0.01 2.37 0.01 C3.18 0.01 3.99 0.01 4.82 0.01 C6.53 0.01 8.24 0.01 9.94 0.02 C12.55 0.03 15.16 0.02 17.77 0 C19.43 0.01 21.09 0.01 22.75 0.01 C23.53 0.01 24.3 0 25.1 0 C29.24 0.04 32.6 0.28 36.26 2.28 C37.41 4.57 37.37 5.81 37.34 8.36 C37.34 9.2 37.33 10.04 37.32 10.91 C37.31 11.82 37.3 12.73 37.29 13.67 C37.28 15.59 37.26 17.52 37.25 19.45 C37.23 22.49 37.2 25.52 37.16 28.56 C37.13 31.49 37.12 34.43 37.1 37.36 C37.09 38.26 37.07 39.16 37.06 40.09 C37.04 44.95 37.49 48.69 39.26 53.28 C39.39 56.65 39.39 56.65 39.26 59.28 C40.25 59.28 41.24 59.28 42.26 59.28 C42.26 61.26 42.26 63.24 42.26 65.28 C43.58 65.94 44.9 66.6 46.26 67.28 C46.26 68.27 46.26 69.26 46.26 70.28 C46.92 70.28 47.58 70.28 48.26 70.28 C49.58 72.92 50.9 75.56 52.26 78.28 C53.91 78.28 55.56 78.28 57.26 78.28 C57.26 77.62 57.26 76.96 57.26 76.28 C57.92 76.28 58.58 76.28 59.26 76.28 C59.2 75.51 59.14 74.75 59.07 73.97 C59.26 71.28 59.26 71.28 60.76 69.47 C61.26 69.07 61.75 68.68 62.26 68.28 C61.6 67.95 60.94 67.62 60.26 67.28 C60.92 67.28 61.58 67.28 62.26 67.28 C62.59 65.3 62.92 63.32 63.26 61.28 C63.92 61.28 64.58 61.28 65.26 61.28 C66.7 58.4 67.39 55.37 68.26 52.28 C68.59 51.29 68.92 50.3 69.26 49.28 C69.36 46.9 69.39 44.53 69.39 42.15 C69.39 41.1 69.39 41.1 69.4 40.03 C69.4 38.54 69.39 37.05 69.39 35.56 C69.39 33.31 69.39 31.07 69.4 28.83 C69.4 20.93 69.19 13.13 68.26 5.28 C68.92 5.28 69.58 5.28 70.26 5.28 C70.59 4.29 70.92 3.3 71.26 2.28 C71.92 2.28 72.58 2.28 73.26 2.28 C73.26 1.62 73.26 0.96 73.26 0.28 C85.47 0.28 97.68 0.28 110.26 0.28 C111.93 3.61 112.62 5.73 113.26 9.28 C113.76 10.76 113.76 10.76 114.26 12.28 C114.35 13.72 114.39 15.18 114.39 16.63 C114.39 17.5 114.4 18.37 114.4 19.27 C114.4 20.69 114.4 20.69 114.39 22.13 C114.39 23.09 114.4 24.06 114.4 25.06 C114.4 27.1 114.39 29.15 114.39 31.19 C114.39 34.33 114.39 37.47 114.4 40.61 C114.4 42.59 114.4 44.58 114.39 46.56 C114.4 47.51 114.4 48.45 114.4 49.42 C114.39 50.73 114.39 50.73 114.39 52.06 C114.39 52.83 114.39 53.6 114.39 54.39 C114.26 56.28 114.26 56.28 113.26 58.28 C112.6 58.28 111.94 58.28 111.26 58.28 C111.32 59.29 111.38 60.3 111.45 61.34 C111.24 65.68 110.16 68.4 108.26 72.28 C107.97 72.96 107.68 73.64 107.39 74.34 C106.26 76.28 106.26 76.28 103.76 79.22 C101.53 81.95 100.33 83.97 99.26 87.28 C98.6 87.28 97.94 87.28 97.26 87.28 C97.16 87.83 97.05 88.39 96.95 88.97 C96.12 91.75 94.92 93.89 93.26 96.28 C92.6 96.28 91.94 96.28 91.26 96.28 C91.18 96.88 91.1 97.47 91.01 98.09 C90.26 100.28 90.26 100.28 88.32 101.72 C85.79 103.63 85.4 105.38 84.26 108.28 C82.78 108.77 82.78 108.77 81.26 109.28 C81.59 109.94 81.92 110.6 82.26 111.28 C81.23 112.56 80.19 113.83 79.14 115.09 C78.56 115.8 77.98 116.51 77.38 117.23 C72.85 121.6 68.45 122.66 62.29 122.68 C60.98 122.68 59.66 122.68 58.31 122.69 C57.64 122.68 56.96 122.68 56.27 122.67 C54.2 122.65 52.14 122.67 50.07 122.69 C48.11 122.68 48.11 122.68 46.1 122.68 C44.31 122.67 44.31 122.67 42.49 122.67 C35.69 121.85 31.65 117.16 27.45 112.09 C26.26 110.28 26.26 110.28 26.26 108.28 C25.6 108.28 24.94 108.28 24.26 108.28 C23.85 107.37 23.44 106.46 23.01 105.53 C21.49 102.34 21.49 102.34 19.45 100.47 C14.65 95.67 11.17 89.6 8.44 83.42 C6.22 78.56 3.4 75.01 -0.2 71.09 C-2.02 68.95 -2.88 66.93 -3.74 64.28 C-4.23 63.56 -4.71 62.84 -5.22 62.1 C-7.09 58.63 -7.43 55.74 -7.86 51.84 C-8.46 46.55 -8.46 46.55 -9.28 41.3 C-9.83 37.66 -9.93 34.08 -9.93 30.4 C-9.93 29.67 -9.93 28.94 -9.93 28.18 C-9.87 21.53 -9.12 15.06 -8.18 8.47 C-7.67 5.32 -7.67 5.32 -7.74 2.28 C-5.18 -0.28 -3.49 0.03 0 0 Z M103.26 73.28 C104.26 75.28 104.26 75.28 104.26 75.28 Z M102.26 76.28 C103.26 78.28 103.26 78.28 103.26 78.28 Z M92.26 90.28 C91.93 91.27 91.6 92.26 91.26 93.28 C92.25 92.95 93.24 92.62 94.26 92.28 C94.26 91.62 94.26 90.96 94.26 90.28 C93.6 90.28 92.94 90.28 92.26 90.28 Z M75.26 113.28 C75.26 114.27 75.26 115.26 75.26 116.28 C75.92 115.62 76.58 114.96 77.26 114.28 C76.6 113.95 75.94 113.62 75.26 113.28 Z M72.26 116.28 C71.93 117.27 71.6 118.26 71.26 119.28 C72.25 118.95 73.24 118.62 74.26 118.28 C73.6 117.62 72.94 116.96 72.26 116.28 Z " fill="#F8FAFA" transform="translate(958.7395782470703,245.72210693359375)"/>
<path d="M0 0 C1.27 -0.01 1.27 -0.01 2.56 -0.03 C3.93 -0.04 3.93 -0.04 5.33 -0.04 C6.74 -0.05 6.74 -0.05 8.18 -0.06 C10.17 -0.07 12.16 -0.08 14.15 -0.08 C17.19 -0.09 20.24 -0.12 23.28 -0.15 C25.21 -0.16 27.15 -0.16 29.08 -0.17 C29.99 -0.18 30.9 -0.19 31.83 -0.2 C36.64 -0.19 40.06 -0.08 43.91 3.16 C45.07 6.48 45.03 7.79 43.91 11.16 C43.76 14.03 43.67 16.88 43.62 19.75 C43.61 20.6 43.59 21.45 43.57 22.33 C43.51 25.07 43.46 27.8 43.41 30.54 C43.35 33.24 43.3 35.93 43.24 38.63 C43.21 40.31 43.17 41.99 43.15 43.67 C43.05 48.1 42.8 52.48 42.4 56.9 C41.61 66.68 41.76 76.48 41.77 86.29 C41.77 88.41 41.77 90.54 41.77 92.66 C41.77 97.09 41.77 101.51 41.77 105.94 C41.78 111.61 41.78 117.28 41.77 122.96 C41.77 127.33 41.77 131.7 41.77 136.08 C41.77 138.17 41.77 140.26 41.77 142.36 C41.77 145.27 41.77 148.19 41.78 151.1 C41.77 151.96 41.77 152.83 41.77 153.72 C41.77 154.51 41.78 155.3 41.78 156.12 C41.78 156.81 41.78 157.5 41.78 158.21 C41.91 160.3 42.38 162.14 42.91 164.16 C43.58 171.28 43.58 171.28 40.92 174.76 C36.88 177.98 34.18 177.83 29.17 177.68 C27.93 177.68 27.93 177.68 26.65 177.67 C24.01 177.65 21.36 177.59 18.72 177.54 C16.93 177.52 15.14 177.51 13.34 177.49 C0.3 177.36 0.3 177.36 -2.09 176.16 C-3.89 172.58 -4.34 169.66 -4.34 165.68 C-4.34 164.59 -4.34 163.51 -4.34 162.39 C-4.34 161.2 -4.33 160.02 -4.32 158.8 C-4.32 157.55 -4.32 156.29 -4.32 155 C-4.32 151.57 -4.31 148.14 -4.3 144.7 C-4.29 141.11 -4.28 137.52 -4.28 133.93 C-4.28 127.12 -4.26 120.32 -4.24 113.52 C-4.22 105.78 -4.21 98.05 -4.2 90.31 C-4.18 75.05 -4.14 59.79 -4.1 44.53 C-4.1 42.74 -4.09 40.95 -4.09 39.16 C-4.05 38.21 -4.01 37.26 -3.97 36.29 C-3.89 33.25 -3.89 33.25 -5.07 31.04 C-6.5 27.03 -6.52 23.2 -6.66 18.97 C-6.61 13.4 -6.61 13.4 -8.09 8.16 C-7.43 8.16 -6.77 8.16 -6.09 8.16 C-6.75 6.51 -7.41 4.86 -8.09 3.16 C-7.43 3.16 -6.77 3.16 -6.09 3.16 C-6.09 2.5 -6.09 1.84 -6.09 1.16 C-3.82 0.02 -2.53 0.02 0 0 Z M39.91 61.16 C40.91 63.16 40.91 63.16 40.91 63.16 Z M39.91 171.16 C40.91 173.16 40.91 173.16 40.91 173.16 Z " fill="#F9FBFB" transform="translate(365.094970703125,190.8388671875)"/>
<path d="M0 0 C1.42 -0 1.42 -0 2.86 -0.01 C4.86 -0.02 6.86 -0.02 8.86 -0.02 C11.93 -0.02 14.99 -0.04 18.05 -0.06 C19.99 -0.06 21.93 -0.06 23.88 -0.06 C24.79 -0.07 25.71 -0.08 26.65 -0.08 C27.51 -0.08 28.37 -0.08 29.25 -0.07 C30 -0.08 30.76 -0.08 31.53 -0.08 C33.92 0.2 35.56 0.98 37.64 2.17 C37.66 8.75 37.68 15.33 37.69 21.91 C37.7 24.14 37.7 26.37 37.71 28.6 C37.84 61.76 37.84 61.76 35.64 66.17 C35.54 68.8 35.5 71.41 35.51 74.04 C35.51 74.86 35.5 75.67 35.5 76.51 C35.5 79.2 35.5 81.9 35.5 84.6 C35.5 86.47 35.5 88.34 35.5 90.21 C35.5 94.14 35.5 98.06 35.51 101.99 C35.51 107.02 35.51 112.05 35.5 117.09 C35.5 120.95 35.5 124.82 35.5 128.68 C35.5 130.54 35.5 132.39 35.5 134.25 C35.5 136.84 35.5 139.44 35.51 142.03 C35.51 142.8 35.5 143.57 35.5 144.36 C35.51 147.8 35.7 150.86 36.64 154.17 C36.32 155.51 35.99 156.84 35.64 158.17 C35.97 158.83 36.3 159.49 36.64 160.17 C36.94 161.72 37.18 163.29 37.39 164.86 C37.51 165.68 37.62 166.51 37.75 167.37 C37.6 171.08 36.15 173.81 34.64 177.17 C29.16 177.24 23.68 177.3 18.19 177.33 C16.33 177.35 14.47 177.37 12.6 177.39 C9.92 177.43 7.24 177.45 4.56 177.46 C3.73 177.48 2.89 177.49 2.04 177.51 C-1.37 177.51 -3.76 177.46 -6.86 175.96 C-9.73 172.54 -9.49 168.18 -9.48 163.88 C-9.48 162.83 -9.49 161.79 -9.49 160.71 C-9.48 159.57 -9.48 158.44 -9.48 157.27 C-9.48 156.06 -9.48 154.85 -9.48 153.61 C-9.48 150.32 -9.47 147.02 -9.46 143.72 C-9.46 140.27 -9.46 136.82 -9.46 133.36 C-9.45 126.83 -9.45 120.29 -9.44 113.75 C-9.42 106.32 -9.42 98.89 -9.41 91.45 C-9.4 76.79 -9.39 62.12 -9.37 47.46 C-9.36 44.18 -9.44 40.99 -9.74 37.73 C-9.83 36.77 -9.92 35.81 -10.01 34.82 C-10.29 31.95 -10.58 29.08 -10.88 26.21 C-10.97 25.33 -11.06 24.45 -11.15 23.54 C-11.33 21.78 -11.52 20.01 -11.7 18.25 C-12.07 14.7 -12.36 11.26 -12.36 7.69 C-12.18 5.17 -12.18 5.17 -13.36 3.17 C-12.7 3.17 -12.04 3.17 -11.36 3.17 C-11.03 2.51 -10.7 1.85 -10.36 1.17 C-8.18 -1.01 -3.03 0 0 0 Z " fill="#F9FBFB" transform="translate(437.36328125,190.83203125)"/>
<path d="M0 0 C8.19 -0.47 8.19 -0.47 11.56 1.5 C12.04 2 12.51 2.49 13 3 C13.33 2.34 13.66 1.68 14 1 C28.85 1.5 28.85 1.5 44 2 C44.66 3.98 45.32 5.96 46 8 C45.34 8 44.68 8 44 8 C44 8.57 44.01 9.14 44.01 9.72 C44.1 23.55 44.17 37.38 44.21 51.21 C44.23 57.9 44.26 64.59 44.3 71.27 C44.35 77.73 44.37 84.18 44.38 90.63 C44.39 93.09 44.4 95.56 44.42 98.02 C44.45 101.47 44.46 104.91 44.45 108.36 C44.47 109.38 44.48 110.4 44.5 111.46 C44.46 118.37 44.46 118.37 42.1 121.6 C36.92 125.05 31.49 124.22 25.42 124.24 C23.34 124.25 21.26 124.28 19.18 124.31 C17.85 124.32 16.51 124.32 15.18 124.33 C13.97 124.34 12.76 124.35 11.52 124.36 C6.81 123.88 2.81 122.72 -0.68 119.4 C-2.58 115.94 -2.39 112.65 -2.32 108.81 C-2.32 107.98 -2.32 107.16 -2.32 106.31 C-2.31 103.59 -2.29 100.87 -2.26 98.16 C-2.25 96.27 -2.24 94.38 -2.24 92.48 C-2.22 87.51 -2.19 82.53 -2.15 77.56 C-2.09 69.59 -2.05 61.62 -2.02 53.66 C-2.01 50.88 -1.99 48.09 -1.96 45.31 C-1.95 43.6 -1.94 41.9 -1.93 40.19 C-1.93 39.42 -1.92 38.65 -1.91 37.85 C-1.89 34.4 -2 31.31 -3 28 C-3.08 26.05 -3.11 24.09 -3.1 22.14 C-3.09 21.03 -3.09 19.91 -3.09 18.76 C-3.08 17.6 -3.07 16.44 -3.06 15.25 C-3.06 14.08 -3.05 12.9 -3.05 11.69 C-3.04 8.79 -3.02 5.9 -3 3 C-2.01 2.67 -1.02 2.34 0 2 C0 1.34 0 0.68 0 0 Z " fill="#F8FAFA" transform="translate(295,244)"/>
<path d="M0 0 C1.23 0.01 1.23 0.01 2.49 0.02 C3.9 0.02 3.9 0.02 5.34 0.02 C6.89 0.04 6.89 0.04 8.47 0.06 C9.56 0.06 10.65 0.07 11.77 0.07 C15.38 0.09 18.99 0.12 22.6 0.16 C25.1 0.18 27.61 0.19 30.11 0.21 C35.35 0.25 40.6 0.3 45.85 0.35 C51.92 0.41 57.99 0.45 64.06 0.49 C69.89 0.52 75.73 0.57 81.56 0.62 C84.05 0.65 86.53 0.66 89.02 0.68 C92.48 0.69 95.95 0.73 99.42 0.77 C100.46 0.78 101.49 0.78 102.55 0.78 C103.5 0.8 104.44 0.81 105.41 0.83 C106.23 0.83 107.06 0.84 107.9 0.85 C110.53 1.33 111.43 2.11 113.01 4.24 C113.4 7.18 113.4 7.18 113.41 10.73 C113.42 12.02 113.42 13.3 113.42 14.62 C113.42 15.28 113.41 15.95 113.4 16.64 C113.39 18.67 113.4 20.69 113.42 22.73 C113.42 24.01 113.42 25.29 113.41 26.61 C113.41 27.78 113.4 28.96 113.4 30.17 C112.96 33.64 112.7 35 110.01 37.24 C103.72 38.34 97.56 38.34 91.19 38.26 C90.14 38.25 89.08 38.24 88 38.23 C84.53 38.2 81.07 38.16 77.61 38.12 C75.2 38.09 72.79 38.07 70.38 38.05 C64.05 37.98 57.73 37.91 51.4 37.84 C44.94 37.77 38.48 37.71 32.01 37.64 C19.35 37.51 6.68 37.38 -5.99 37.24 C-8.26 32.69 -7.22 26.41 -7.24 21.43 C-7.26 20.14 -7.28 18.86 -7.3 17.53 C-7.3 16.3 -7.31 15.06 -7.31 13.78 C-7.32 12.65 -7.33 11.51 -7.34 10.35 C-6.86 6.11 -4.79 0.58 0 0 Z " fill="#F9FBFB" transform="translate(559.9868612289429,379.7611417770386)"/>
<path d="M0 0 C22.17 -1.18 22.17 -1.18 28.28 4.17 C28.85 4.77 29.41 5.38 30 6 C30.66 6.61 31.32 7.23 32 7.86 C36.07 11.96 37.85 15.4 38.61 21.12 C38.87 23.24 38.87 23.24 41 25 C41.95 33.41 39.88 42.07 34.86 48.92 C27.91 56.31 21.17 60.06 11 60.5 C2.8 60.16 -3.4 57.87 -9.38 52.19 C-15.9 44.95 -17.46 40.09 -17.67 30.42 C-17.72 28.61 -17.85 26.8 -18 25 C-18.66 24.67 -19.32 24.34 -20 24 C-19.01 23.67 -18.02 23.34 -17 23 C-17.08 21.95 -17.17 20.9 -17.25 19.81 C-16.96 15.35 -15.97 14.22 -13 11 C-12.5 10.13 -12.01 9.27 -11.5 8.38 C-8.61 3.8 -5.09 2.5 0 1 C0 0.67 0 0.34 0 0 Z " fill="#F5F7F7" transform="translate(510,310)"/>
<path d="M0 0 C1.27 0.08 2.54 0.15 3.84 0.23 C10.41 1.28 14.71 4.46 19.5 8.81 C23.1 14.21 23.76 19.41 23.5 25.81 C22.84 25.81 22.18 25.81 21.5 25.81 C21.56 26.4 21.62 27 21.68 27.61 C22.05 34.14 22.05 34.14 19 37.88 C18.18 38.51 17.35 39.15 16.5 39.81 C16.17 39.15 15.84 38.49 15.5 37.81 C14.51 37.81 13.52 37.81 12.5 37.81 C12.5 38.8 12.5 39.79 12.5 40.81 C13.49 41.31 13.49 41.31 14.5 41.81 C7.63 45.84 0.27 45.59 -7.5 44.81 C-10.7 43.83 -12.66 42.69 -15.5 40.81 C-16.32 40.28 -17.15 39.74 -18 39.19 C-18.5 38.73 -18.99 38.28 -19.5 37.81 C-19.5 37.15 -19.5 36.49 -19.5 35.81 C-20.49 35.48 -21.48 35.15 -22.5 34.81 C-25.87 30.68 -25.9 26.74 -25.75 21.62 C-25.74 20.9 -25.74 20.18 -25.73 19.43 C-25.66 14.12 -25.66 14.12 -24.5 11.81 C-23.84 11.81 -23.18 11.81 -22.5 11.81 C-22.5 11.15 -22.5 10.49 -22.5 9.81 C-23.16 9.48 -23.82 9.15 -24.5 8.81 C-23.72 8.19 -22.93 7.57 -22.12 6.94 C-19.53 4.91 -19.53 4.91 -17.5 2.81 C-17.17 3.14 -16.84 3.47 -16.5 3.81 C-15.51 3.15 -14.52 2.49 -13.5 1.81 C-8.79 -0.16 -5.07 -0.36 0 0 Z M17.5 33.81 C18.5 35.81 18.5 35.81 18.5 35.81 Z M15.5 34.81 C15.5 35.47 15.5 36.13 15.5 36.81 C16.16 36.48 16.82 36.15 17.5 35.81 C16.84 35.48 16.18 35.15 15.5 34.81 Z " fill="#F7F9F9" transform="translate(317.5,194.1875)"/>
<path d="M0 0 C30.03 0 60.06 0 91 0 C91 0.33 91 0.66 91 1 C60.97 1 30.94 1 0 1 C0 0.67 0 0.34 0 0 Z " fill="#FAFCFC" transform="translate(575,379)"/>
<path d="M0 0 C0.33 0 0.66 0 1 0 C1 27.72 1 55.44 1 84 C0.67 84 0.34 84 0 84 C0 56.28 0 28.56 0 0 Z " fill="#000100" transform="translate(473,257)"/>
<path d="M0 0 C0.33 0 0.66 0 1 0 C1 20.13 1 40.26 1 61 C0.67 61 0.34 61 0 61 C0 40.87 0 20.74 0 0 Z " fill="#FAFCFC" transform="translate(292,276)"/>
<path d="M0 0 C0.33 0 0.66 0 1 0 C1 12.21 1 24.42 1 37 C0.67 37 0.34 37 0 37 C0 24.79 0 12.58 0 0 Z " fill="#000100" transform="translate(476,195)"/>
<path d="M0 0 C0.33 0 0.66 0 1 0 C1 11.55 1 23.1 1 35 C0.67 35 0.34 35 0 35 C0 23.45 0 11.9 0 0 Z " fill="#000100" transform="translate(1074,263)"/>
<path d="M0 0 C0.33 0 0.66 0 1 0 C1 5.94 1 11.88 1 18 C0.67 18 0.34 18 0 18 C0 12.06 0 6.12 0 0 Z " fill="#000100" transform="translate(810,210)"/>
<path d="M0 0 C5.61 0 11.22 0 17 0 C17 0.33 17 0.66 17 1 C11.39 1 5.78 1 0 1 C0 0.67 0 0.34 0 0 Z " fill="#FAFCFC" transform="translate(721,243)"/>
<path d="M0 0 C0.33 0 0.66 0 1 0 C1 2.64 1 5.28 1 8 C0.67 8 0.34 8 0 8 C0 5.36 0 2.72 0 0 Z " fill="#FAFCFC" transform="translate(290,248)"/>
<path d="M0 0 C0.33 0 0.66 0 1 0 C1 2.31 1 4.62 1 7 C0.67 7 0.34 7 0 7 C0 4.69 0 2.38 0 0 Z " fill="#000100" transform="translate(810,346)"/>
<path d="M0 0 C0.33 0 0.66 0 1 0 C1 1.98 1 3.96 1 6 C0.67 6 0.34 6 0 6 C0 4.02 0 2.04 0 0 Z " fill="#000100" transform="translate(943,297)"/>
<path d="M0 0 C0.66 0.33 1.32 0.66 2 1 C1.01 1.66 0.02 2.32 -1 3 C-0.67 2.01 -0.34 1.02 0 0 Z " fill="#767471" transform="translate(757,320)"/>
<path d="M0 0 C0.33 0 0.66 0 1 0 C1 1.65 1 3.3 1 5 C0.67 5 0.34 5 0 5 C0 3.35 0 1.7 0 0 Z " fill="#FAFCFC" transform="translate(1027,275)"/>
<path d="M0 0 C1 4 1 4 1 4 Z " fill="#FAFCFC" transform="translate(426,326)"/>
<path d="M0 0 C1 4 1 4 1 4 Z " fill="#000100" transform="translate(1071,305)"/>
<path d="M0 0 C1 4 1 4 1 4 Z " fill="#FAFCFC" transform="translate(290,214)"/>
<path d="" fill="#FAFCFC" transform="translate(0,0)"/>
<path d="" fill="#FAFCFC" transform="translate(0,0)"/>
<path d="" fill="#000100" transform="translate(0,0)"/>
<path d="" fill="#000100" transform="translate(0,0)"/>
<path d="" fill="#000100" transform="translate(0,0)"/>
<path d="" fill="#000100" transform="translate(0,0)"/>
<path d="" fill="#FAFCFC" transform="translate(0,0)"/>
<path d="" fill="#FAFCFC" transform="translate(0,0)"/>
<path d="" fill="#000100" transform="translate(0,0)"/>
<path d="" fill="#FAFCFC" transform="translate(0,0)"/>
<path d="M0 0 C2 1 2 1 2 1 Z " fill="#FAFCFC" transform="translate(760,313)"/>
<path d="" fill="#FAFCFC" transform="translate(0,0)"/>
<path d="" fill="#FAFCFC" transform="translate(0,0)"/>
<path d="" fill="#FAFCFC" transform="translate(0,0)"/>
<path d="" fill="#767471" transform="translate(0,0)"/>
<path d="" fill="#767471" transform="translate(0,0)"/>
<path d="" fill="#767471" transform="translate(0,0)"/>
<path d="" fill="#767471" transform="translate(0,0)"/>
<path d="" fill="#767471" transform="translate(0,0)"/>
<path d="" fill="#767471" transform="translate(0,0)"/>
<path d="" fill="#767471" transform="translate(0,0)"/>
<path d="" fill="#767471" transform="translate(0,0)"/>
<path d="" fill="#767471" transform="translate(0,0)"/>
<path d="" fill="#767471" transform="translate(0,0)"/>
<path d="" fill="#FAFCFC" transform="translate(0,0)"/>
<path d="" fill="#000100" transform="translate(0,0)"/>
<path d="" fill="#000100" transform="translate(0,0)"/>
<path d="" fill="#000100" transform="translate(0,0)"/>
<path d="" fill="#FAFCFC" transform="translate(0,0)"/>
<path d="" fill="#767471" transform="translate(0,0)"/>
<path d="" fill="#000100" transform="translate(0,0)"/>
<path d="" fill="#FAFCFC" transform="translate(0,0)"/>
<path d="" fill="#FAFCFC" transform="translate(0,0)"/>
<path d="" fill="#FAFCFC" transform="translate(0,0)"/>
<path d="" fill="#000100" transform="translate(0,0)"/>
<path d="" fill="#000100" transform="translate(0,0)"/>
<path d="" fill="#FAFCFC" transform="translate(0,0)"/>
<path d="" fill="#767471" transform="translate(0,0)"/>
<path d="" fill="#FAFCFC" transform="translate(0,0)"/>
<path d="" fill="#000100" transform="translate(0,0)"/>
<path d="" fill="#767471" transform="translate(0,0)"/>
<path d="" fill="#FAFCFC" transform="translate(0,0)"/>
<path d="" fill="#767471" transform="translate(0,0)"/>
<path d="" fill="#FAFCFC" transform="translate(0,0)"/>
<path d="" fill="#FAFCFC" transform="translate(0,0)"/>
<path d="" fill="#000100" transform="translate(0,0)"/>
<path d="" fill="#FAFCFC" transform="translate(0,0)"/>
<path d="" fill="#767471" transform="translate(0,0)"/>
<path d="" fill="#FAFCFC" transform="translate(0,0)"/>
<path d="" fill="#FAFCFC" transform="translate(0,0)"/>
<path d="" fill="#FAFCFC" transform="translate(0,0)"/>
<path d="" fill="#FAFCFC" transform="translate(0,0)"/>
<path d="" fill="#FAFCFC" transform="translate(0,0)"/>
<path d="" fill="#FAFCFC" transform="translate(0,0)"/>
<path d="" fill="#767471" transform="translate(0,0)"/>
<path d="" fill="#767471" transform="translate(0,0)"/>
<path d="" fill="#000100" transform="translate(0,0)"/>
<path d="" fill="#FAFCFC" transform="translate(0,0)"/>
<path d="" fill="#FAFCFC" transform="translate(0,0)"/>
<path d="" fill="#FAFCFC" transform="translate(0,0)"/>
</svg>
