<?xml version="1.0" encoding="UTF-8"?>
<!-- Generator: visioncortex VTracer 0.6.3 -->
<svg version="1.1" xmlns="http://www.w3.org/2000/svg" width="1280" height="613">
<path d="M0 0 C422.4 0 844.8 0 1280 0 C1280 202.29 1280 404.58 1280 613 C857.6 613 435.2 613 0 613 C0 410.71 0 208.42 0 0 Z " fill="#000002" transform="translate(0,0)"/>
<path d="M0 0 C0.03 2.58 0.05 5.17 0.06 7.75 C0.07 8.46 0.08 9.17 0.09 9.9 C0.11 14.2 -0.09 18.43 -0.47 22.71 C-2.65 47.27 -2.11 72.13 -2.12 96.77 C-2.12 99.03 -2.13 101.29 -2.13 103.54 C-2.17 127.06 -1.82 150.54 0 174 C-5.64 174.07 -11.28 174.13 -16.93 174.16 C-18.84 174.18 -20.76 174.2 -22.68 174.23 C-25.44 174.26 -28.2 174.28 -30.96 174.29 C-31.82 174.31 -32.68 174.32 -33.56 174.34 C-34.36 174.34 -35.16 174.34 -35.99 174.34 C-37.04 174.35 -37.04 174.35 -38.12 174.36 C-40.62 173.88 -41.48 173.01 -43 171 C-43.69 167.31 -43.69 167.31 -44 164 C-44.5 164.39 -44.99 164.77 -45.5 165.17 C-59.35 175.79 -72.44 178.7 -89.7 176.68 C-91.87 176.25 -93.9 175.68 -96 175 C-96.83 174.78 -97.67 174.56 -98.52 174.33 C-111.39 170.42 -121.72 161.04 -128.42 149.57 C-137.28 132.86 -138.29 113.22 -133.19 95.12 C-132.24 92.35 -131.17 89.68 -130 87 C-129.61 86.11 -129.23 85.21 -128.83 84.29 C-122.68 71.66 -112.01 62.18 -99 57 C-86.29 53.03 -72.6 52.13 -60 57 C-57.08 58.75 -54.56 60.76 -52 63 C-50.67 64.01 -49.34 65.01 -48 66 C-48.01 65.26 -48.01 64.51 -48.02 63.75 C-48.08 56.75 -48.13 49.74 -48.16 42.74 C-48.17 39.14 -48.19 35.54 -48.23 31.94 C-48.26 28.46 -48.28 24.99 -48.28 21.51 C-48.29 19.54 -48.32 17.57 -48.34 15.6 C-48.34 14.4 -48.34 13.2 -48.34 11.96 C-48.35 10.38 -48.35 10.38 -48.36 8.76 C-47.94 5.58 -47.3 4.22 -45 2 C-43.06 1.4 -43.06 1.4 -40.85 1.25 C-40.02 1.19 -39.19 1.13 -38.33 1.06 C-37.44 1.02 -36.55 0.97 -35.62 0.92 C-34.7 0.85 -33.78 0.79 -32.83 0.73 C-30.89 0.6 -28.94 0.47 -26.99 0.36 C-24.01 0.19 -21.03 -0.01 -18.05 -0.22 C-16.16 -0.34 -14.27 -0.46 -12.38 -0.58 C-11.48 -0.64 -10.59 -0.7 -9.67 -0.76 C-8.84 -0.81 -8 -0.85 -7.15 -0.9 C-6.42 -0.95 -5.69 -0.99 -4.94 -1.03 C-3 -1 -3 -1 0 0 Z " fill="#F8F8F8" transform="translate(811,190)"/>
<path d="M0 0 C2.57 -0.1 5.14 -0.16 7.71 -0.21 C8.51 -0.24 9.32 -0.27 10.16 -0.3 C13.74 -0.34 15.84 -0.28 18.94 1.62 C22.17 6.9 21.63 14.17 21.69 20.23 C21.7 20.98 21.71 21.73 21.72 22.51 C21.73 24.09 21.74 25.67 21.75 27.26 C21.76 28.85 21.78 30.44 21.81 32.03 C22.11 48.28 19.17 61.3 11.08 75.66 C10.47 76.76 9.87 77.86 9.24 79 C-11.1 115.44 -11.1 115.44 -19.23 118.47 C-24.03 119.27 -28.88 119.3 -33.73 119.35 C-34.5 119.36 -35.28 119.37 -36.07 119.38 C-41.75 119.34 -46.45 118.82 -50.98 115.1 C-58.79 105.96 -64.56 95.47 -70.54 85.1 C-71.03 85.92 -71.52 86.74 -72.03 87.59 C-73.85 90.66 -75.69 93.72 -77.53 96.79 C-78.33 98.11 -79.12 99.43 -79.9 100.76 C-81.04 102.67 -82.19 104.58 -83.34 106.49 C-83.68 107.07 -84.03 107.66 -84.39 108.26 C-87.13 112.79 -90.01 117.35 -95.26 118.9 C-99.53 119.16 -103.77 119.32 -108.04 119.35 C-108.87 119.37 -109.7 119.39 -110.56 119.41 C-117.61 119.46 -121.9 117.81 -127.09 112.93 C-130.63 109.22 -133.27 105.2 -135.86 100.79 C-136.32 100.01 -136.78 99.24 -137.26 98.44 C-140.57 92.85 -143.8 87.21 -146.98 81.54 C-147.38 80.82 -147.78 80.11 -148.2 79.38 C-150.94 74.4 -153.3 69.32 -155.54 64.1 C-155.95 63.19 -156.36 62.28 -156.78 61.35 C-157.09 60.61 -157.41 59.86 -157.73 59.1 C-158.06 58.36 -158.38 57.61 -158.71 56.85 C-161.29 48.34 -160.73 39.14 -160.73 30.33 C-160.73 28.04 -160.75 25.74 -160.77 23.45 C-160.77 21.97 -160.77 20.48 -160.78 19 C-160.78 18.33 -160.79 17.65 -160.8 16.96 C-160.77 11.51 -160.56 5.11 -156.54 1.1 C-153.86 0.87 -151.27 0.77 -148.58 0.76 C-147.79 0.76 -147 0.75 -146.19 0.74 C-144.52 0.73 -142.85 0.73 -141.18 0.73 C-138.62 0.72 -136.06 0.69 -133.51 0.65 C-131.89 0.64 -130.26 0.64 -128.64 0.64 C-127.49 0.62 -127.49 0.62 -126.32 0.59 C-123.2 0.62 -121.09 0.69 -118.55 2.6 C-117.09 6.21 -117.2 9.66 -117.29 13.49 C-117.3 14.71 -117.3 14.71 -117.31 15.96 C-117.33 18.57 -117.37 21.18 -117.42 23.79 C-117.46 26.38 -117.49 28.97 -117.51 31.56 C-117.53 33.17 -117.55 34.78 -117.58 36.39 C-117.69 45.07 -117.13 52.22 -112.79 59.85 C-112.46 60.48 -112.12 61.11 -111.78 61.77 C-109.26 66.35 -106.36 70.69 -101.54 73.1 C-93.39 59.31 -89.35 48.71 -89.42 32.47 C-89.42 31.41 -89.42 30.34 -89.42 29.24 C-89.45 22.63 -89.7 16.15 -90.52 9.59 C-90.55 6.62 -89.9 4.72 -88.54 2.1 C-85.39 0.52 -82.01 0.94 -78.54 0.93 C-77.75 0.93 -76.96 0.92 -76.15 0.92 C-74.47 0.92 -72.8 0.91 -71.12 0.91 C-68.56 0.91 -65.99 0.89 -63.42 0.87 C-61.79 0.87 -60.17 0.87 -58.54 0.87 C-57.39 0.86 -57.39 0.86 -56.21 0.85 C-50.77 0.87 -50.77 0.87 -48.54 3.1 C-48.33 5.02 -48.33 5.02 -48.38 7.39 C-48.39 8.28 -48.41 9.17 -48.42 10.08 C-48.44 11.05 -48.47 12.01 -48.49 13 C-48.52 15.05 -48.54 17.09 -48.56 19.14 C-48.61 22.36 -48.67 25.58 -48.74 28.8 C-48.8 31.91 -48.83 35.02 -48.87 38.13 C-48.89 39.08 -48.92 40.03 -48.95 41 C-49 47.82 -47.47 52.97 -44.54 59.1 C-44.04 60.18 -43.54 61.26 -43.02 62.38 C-42.55 63.25 -42.09 64.13 -41.61 65.04 C-41.14 65.93 -40.68 66.83 -40.21 67.75 C-38.3 70.44 -36.45 71.61 -33.54 73.1 C-25.41 60.11 -22.47 50.6 -22.33 35.36 C-22.31 33.53 -22.28 31.71 -22.25 29.88 C-22.21 27.04 -22.17 24.19 -22.14 21.35 C-22.12 18.58 -22.07 15.81 -22.02 13.04 C-22.02 12.19 -22.01 11.34 -22.01 10.46 C-21.89 4.54 -21.89 4.54 -20.21 2.38 C-15.52 -1.23 -5.87 0.23 0 0 Z " fill="#F8F8F8" transform="translate(254.544921875,245.9013671875)"/>
<path d="M0 0 C12.06 9.67 20.97 24.66 23 40 C23.23 43.02 23.32 46.03 23.38 49.06 C23.43 50.25 23.43 50.25 23.49 51.46 C23.55 55.38 23.28 57.52 21.25 60.95 C16.3 64.07 11.38 64.22 5.62 64.69 C3.82 64.86 3.82 64.86 1.99 65.03 C-1.67 65.38 -5.34 65.69 -9 66 C-11.08 66.19 -13.15 66.39 -15.23 66.59 C-27.14 67.71 -39.05 68.47 -51 69 C-52.25 70.92 -52.25 70.92 -51.43 72.73 C-47.66 79.56 -42.42 82.83 -35 85 C-22.34 86.75 -10.84 84.9 -0.11 77.89 C2 77 2 77 4.48 76.95 C8.15 78.48 9.61 81.26 11.56 84.56 C12.15 85.52 12.15 85.52 12.74 86.49 C13.85 88.31 14.93 90.15 16 92 C16.51 92.85 17.02 93.69 17.54 94.57 C18.69 96.63 18.69 96.63 20 100 C18.03 105.87 11.93 109.39 6.75 112.23 C-12.37 120.65 -38.17 120.96 -57.64 113.63 C-70.31 107.81 -80.9 99.09 -88 87 C-88.59 86.09 -88.59 86.09 -89.2 85.16 C-96.64 72.52 -96.83 52.79 -93.81 38.84 C-88.81 21.37 -79.48 6.31 -63.3 -2.76 C-62.54 -3.17 -61.78 -3.58 -61 -4 C-60.05 -4.56 -59.1 -5.11 -58.12 -5.69 C-39.17 -13.65 -17.01 -11.74 0 0 Z " fill="#F8F8F8" transform="translate(919,249)"/>
<path d="M0 0 C3.22 0.1 3.22 0.1 5.59 1.67 C10.61 9.19 8.67 22.53 8.79 31.21 C8.82 33.37 8.88 35.54 8.95 37.7 C9.46 52.92 7.84 63.43 -0.78 76.1 C-1.52 77.25 -2.25 78.39 -2.99 79.54 C-4.86 82.44 -6.82 85.27 -8.78 88.1 C-9.38 89.04 -9.99 89.98 -10.6 90.94 C-14.6 97.17 -18.95 102.98 -23.6 108.73 C-24.16 109.43 -24.72 110.13 -25.3 110.85 C-25.84 111.5 -26.38 112.16 -26.93 112.83 C-27.65 113.71 -27.65 113.71 -28.38 114.6 C-32.03 118.5 -35.71 118.99 -40.81 119.27 C-44.43 119.31 -48.04 119.34 -51.66 119.35 C-52.91 119.38 -54.17 119.4 -55.46 119.42 C-69.34 119.48 -69.34 119.48 -75.41 113.54 C-76.19 112.55 -76.98 111.56 -77.78 110.54 C-78.21 110.01 -78.64 109.47 -79.08 108.92 C-82.87 104.13 -86.39 99.18 -89.78 94.1 C-90.55 92.98 -91.32 91.86 -92.08 90.75 C-104.25 72.88 -113.88 57.78 -113.99 35.56 C-113.99 34.66 -114 33.77 -114 32.85 C-114.01 30.98 -114.02 29.1 -114.02 27.22 C-114.03 24.35 -114.07 21.48 -114.1 18.6 C-114.1 16.77 -114.11 14.95 -114.11 13.12 C-114.12 12.26 -114.14 11.4 -114.15 10.52 C-114.15 9.72 -114.14 8.92 -114.14 8.1 C-114.14 7.4 -114.15 6.7 -114.15 5.97 C-113.66 3.47 -112.82 2.61 -110.78 1.1 C-108.88 0.72 -108.88 0.72 -106.71 0.72 C-105.9 0.71 -105.08 0.7 -104.24 0.69 C-102.93 0.7 -102.93 0.7 -101.59 0.71 C-100.24 0.7 -100.24 0.7 -98.86 0.7 C-96.96 0.7 -95.05 0.7 -93.15 0.71 C-90.23 0.73 -87.31 0.71 -84.39 0.69 C-82.54 0.7 -80.69 0.7 -78.84 0.71 C-77.97 0.7 -77.09 0.69 -76.18 0.69 C-73.73 0.72 -73.73 0.72 -69.78 1.1 C-67.2 4.97 -67.53 8.19 -67.6 12.67 C-67.6 13.45 -67.6 14.23 -67.6 15.03 C-67.64 20.82 -67.64 20.82 -68.78 23.1 C-70.04 40.87 -66.58 55.71 -57.78 71.1 C-57.26 72.05 -56.74 73 -56.2 73.98 C-54.42 76.65 -52.81 77.21 -49.78 78.1 C-46.35 74.13 -43.99 70.02 -41.66 65.35 C-41.31 64.69 -40.97 64.02 -40.61 63.34 C-36.4 54.95 -35.49 47 -35.69 37.71 C-35.71 35.74 -35.73 33.78 -35.75 31.82 C-35.8 28.76 -35.85 25.7 -35.9 22.64 C-35.95 19.66 -35.98 16.68 -36.01 13.71 C-36.03 12.79 -36.05 11.87 -36.07 10.92 C-36.08 10.07 -36.09 9.22 -36.09 8.34 C-36.11 7.59 -36.12 6.85 -36.13 6.08 C-35.68 3.52 -34.83 2.66 -32.78 1.1 C-29.89 0.67 -29.89 0.67 -26.39 0.59 C-25.13 0.56 -23.86 0.52 -22.55 0.49 C-21.21 0.46 -19.87 0.44 -18.53 0.42 C-17.22 0.38 -15.91 0.35 -14.56 0.31 C-9.71 0.19 -4.85 0.13 0 0 Z " fill="#F8F8F8" transform="translate(1063.7841796875,245.895263671875)"/>
<path d="M0 0 C0.92 -0 1.84 -0.01 2.78 -0.01 C3.77 0 4.76 0.02 5.77 0.03 C7.29 0.03 7.29 0.03 8.85 0.03 C10.99 0.04 13.13 0.05 15.28 0.08 C18.57 0.11 21.87 0.12 25.16 0.12 C27.24 0.13 29.32 0.14 31.4 0.15 C32.39 0.16 33.38 0.16 34.4 0.17 C35.77 0.18 35.77 0.18 37.16 0.2 C38.37 0.21 38.37 0.21 39.61 0.22 C41.45 0.36 41.45 0.36 42.45 1.36 C42.55 4.18 42.59 6.97 42.58 9.79 C42.58 10.95 42.58 10.95 42.59 12.13 C42.58 16.02 42.44 19.82 41.98 23.68 C41.25 30.78 41.08 37.9 40.89 45.02 C40.87 45.8 40.85 46.58 40.83 47.38 C40.21 70.93 40.34 94.48 40.38 118.03 C40.39 124.18 40.4 130.33 40.4 136.48 C40.41 148.44 40.43 160.4 40.45 172.36 C35.8 173.18 31.32 173.52 26.6 173.52 C25.87 173.53 25.14 173.53 24.38 173.53 C22.84 173.54 21.29 173.54 19.75 173.54 C17.39 173.54 15.04 173.56 12.69 173.58 C11.18 173.58 9.67 173.59 8.17 173.59 C7.47 173.59 6.77 173.6 6.05 173.61 C2.09 173.59 -1.03 173.23 -4.55 171.36 C-5.8 168.85 -5.67 167.16 -5.66 164.35 C-5.66 163.29 -5.66 162.23 -5.66 161.14 C-5.66 159.97 -5.65 158.8 -5.65 157.59 C-5.64 156.36 -5.64 155.14 -5.64 153.87 C-5.64 151.19 -5.63 148.51 -5.62 145.83 C-5.61 141.57 -5.6 137.31 -5.6 133.05 C-5.59 123.2 -5.56 113.35 -5.54 103.5 C-5.52 94.54 -5.5 85.57 -5.49 76.6 C-5.49 73.07 -5.48 69.54 -5.47 66.01 C-5.43 52.37 -5.47 38.75 -5.99 25.12 C-6.03 24.07 -6.07 23.02 -6.11 21.94 C-6.15 20.98 -6.19 20.02 -6.23 19.04 C-6.27 18.2 -6.31 17.36 -6.34 16.5 C-6.48 14.17 -6.48 14.17 -7.55 11.36 C-7.75 9.42 -7.75 9.42 -7.8 7.36 C-7.84 6.34 -7.84 6.34 -7.88 5.29 C-7.12 0.83 -4.1 -0.02 0 0 Z " fill="#F8F8F8" transform="translate(365.54736328125,191.6435546875)"/>
<path d="M0 0 C0.92 -0 1.84 -0.01 2.78 -0.01 C3.77 0 4.76 0.02 5.77 0.03 C7.29 0.03 7.29 0.03 8.85 0.03 C10.99 0.04 13.13 0.05 15.28 0.08 C18.57 0.11 21.87 0.12 25.16 0.12 C27.24 0.13 29.32 0.14 31.4 0.15 C32.39 0.16 33.38 0.16 34.4 0.17 C35.77 0.18 35.77 0.18 37.16 0.2 C38.37 0.21 38.37 0.21 39.61 0.22 C41.45 0.36 41.45 0.36 42.45 1.36 C42.55 4.2 42.59 7.01 42.58 9.86 C42.58 11.02 42.58 11.02 42.59 12.22 C42.59 12.99 42.59 13.77 42.59 14.58 C42.58 15.28 42.58 15.98 42.58 16.7 C42.47 18.9 42.24 21.09 41.98 23.28 C41.25 29.62 41.08 35.97 40.89 42.35 C40.87 43.06 40.85 43.76 40.83 44.49 C40.15 68.22 40.34 91.95 40.38 115.68 C40.39 122.09 40.4 128.5 40.4 134.92 C40.41 147.4 40.43 159.88 40.45 172.36 C35.8 173.18 31.32 173.52 26.6 173.52 C25.87 173.53 25.14 173.53 24.38 173.53 C22.84 173.54 21.29 173.54 19.75 173.54 C17.39 173.54 15.04 173.56 12.69 173.58 C11.18 173.58 9.67 173.59 8.17 173.59 C7.47 173.59 6.77 173.6 6.05 173.61 C2.09 173.59 -1.03 173.23 -4.55 171.36 C-5.81 168.84 -5.67 167.14 -5.66 164.32 C-5.66 163.26 -5.66 162.19 -5.66 161.09 C-5.66 159.92 -5.65 158.74 -5.65 157.53 C-5.64 156.29 -5.64 155.06 -5.64 153.79 C-5.64 151.1 -5.63 148.4 -5.62 145.71 C-5.61 141.43 -5.6 137.16 -5.6 132.88 C-5.59 123 -5.56 113.12 -5.54 103.24 C-5.52 94.24 -5.5 85.23 -5.49 76.23 C-5.49 72.68 -5.48 69.14 -5.47 65.59 C-5.1 38.4 -5.1 38.4 -7.55 11.36 C-8.17 4.22 -8.17 4.22 -6.32 1.64 C-4.06 0 -2.78 -0.01 0 0 Z " fill="#F8F8F8" transform="translate(433.54736328125,191.6435546875)"/>
<path d="M0 0 C8.38 0.76 16.72 0.78 25.12 0.75 C25.82 0.75 26.51 0.75 27.22 0.74 C31.21 0.73 35.2 0.71 39.19 0.69 C40.63 3.58 40.07 5.78 39.81 9 C38.01 33.93 38.08 58.9 38.19 83.88 C38.21 89.33 38.23 94.78 38.24 100.23 C38.25 102.38 38.26 104.53 38.28 106.68 C38.28 108.62 38.28 108.62 38.29 110.59 C38.29 111.72 38.3 112.85 38.3 114.02 C38.19 116.69 38.19 116.69 37.19 118.69 C31.42 118.76 25.66 118.82 19.89 118.85 C17.93 118.87 15.97 118.89 14.01 118.91 C11.19 118.95 8.37 118.97 5.55 118.98 C4.67 119 3.79 119.01 2.89 119.03 C-0.69 119.03 -3.15 119.03 -6.37 117.39 C-8.77 114.56 -8.26 111.33 -8.12 107.81 C-8.11 107.01 -8.09 106.21 -8.08 105.39 C-7.96 100.42 -7.71 95.46 -7.45 90.5 C-6.45 71.73 -6.38 53 -7.37 34.24 C-7.42 33.26 -7.47 32.29 -7.52 31.28 C-7.78 26.41 -8.06 21.54 -8.36 16.67 C-8.47 14.88 -8.57 13.09 -8.67 11.3 C-8.73 10.47 -8.79 9.64 -8.85 8.79 C-9.15 3.12 -9.15 3.12 -7.46 0.95 C-4.93 -0.99 -3.13 -0.37 0 0 Z " fill="#F8F8F8" transform="translate(299.8125,245.3125)"/>
<path d="M0 0 C0.95 -0.01 1.9 -0.02 2.88 -0.03 C3.92 -0.02 4.96 -0.01 6.04 -0.01 C7.13 -0.01 8.23 -0.02 9.36 -0.02 C13 -0.04 16.64 -0.03 20.28 -0.02 C22.8 -0.02 25.32 -0.02 27.84 -0.03 C33.13 -0.03 38.42 -0.02 43.71 -0.01 C49.83 0.01 55.94 0 62.06 -0.02 C67.94 -0.03 73.82 -0.03 79.71 -0.02 C82.21 -0.02 84.71 -0.02 87.22 -0.03 C90.71 -0.04 94.21 -0.02 97.7 -0.01 C98.74 -0.01 99.79 -0.02 100.86 -0.03 C101.81 -0.02 102.76 -0.01 103.74 0 C104.57 0 105.39 0 106.24 0 C108.91 0.48 109.82 1.18 111.37 3.38 C111.29 6.24 111.05 8.82 110.62 11.63 C109.8 17.48 109.2 23.31 108.83 29.21 C108.78 29.9 108.74 30.6 108.69 31.31 C108.58 33 108.48 34.69 108.37 36.38 C93.56 36.43 78.75 36.46 63.93 36.48 C57.06 36.49 50.18 36.51 43.3 36.53 C36.67 36.55 30.04 36.57 23.4 36.57 C20.87 36.57 18.33 36.58 15.8 36.59 C12.26 36.61 8.72 36.61 5.17 36.61 C3.59 36.62 3.59 36.62 1.98 36.63 C1.01 36.63 0.05 36.62 -0.94 36.62 C-2.2 36.62 -2.2 36.62 -3.48 36.63 C-5.63 36.38 -5.63 36.38 -8.63 34.38 C-8.89 31.53 -8.96 28.91 -8.88 26.07 C-8.87 25.26 -8.85 24.46 -8.84 23.63 C-8.79 21.21 -8.72 18.8 -8.63 16.38 C-8.59 15.07 -8.55 13.76 -8.5 12.4 C-8.05 3.94 -8.05 3.94 -6.39 1.75 C-4.12 -0.01 -2.85 0 0 0 Z " fill="#F8F8F8" transform="translate(561.6304931640625,378.6190490722656)"/>
<path d="M0 0 C2.59 2.38 4.3 4.72 6.15 7.7 C6.74 8.64 7.33 9.58 7.95 10.55 C11.69 17.38 11.3 26.09 9.97 33.62 C7.72 40.56 2.65 46.31 -3.79 49.64 C-11.63 53.2 -20.66 53.59 -28.79 50.7 C-36 47.43 -41.87 42.19 -45.6 35.2 C-48.15 27.67 -47.87 21.21 -45.48 13.64 C-40.57 4.65 -35.19 -0.84 -25.6 -4.8 C-16.38 -7.02 -7.84 -5.41 0 0 Z " fill="#F8F8F8" transform="translate(538.6015625,314.796875)"/>
<path d="M0 0 C5.78 2.92 10.76 7.8 12.87 14.04 C13.88 19.93 14.44 26.71 11.67 32.16 C8.73 35.77 6.4 37.15 2.23 39.16 C1.24 39.66 1.24 39.66 0.23 40.16 C-2.97 40.45 -6.18 40.44 -9.39 40.47 C-10.27 40.5 -11.15 40.53 -12.05 40.56 C-19.37 40.63 -24.31 38.88 -30.05 34.37 C-34.04 29.96 -35.73 26.55 -35.91 20.55 C-35.53 13.89 -33.4 9.89 -28.77 5.16 C-20.27 -1.22 -10.3 -3.12 0 0 Z " fill="#F8F8F8" transform="translate(326.76953125,195.83984375)"/>
<path d="M0 0 C5.06 3.71 8.58 9.25 9.86 15.36 C10.29 22.19 9.63 27.59 5.86 33.49 C1.19 38.58 -5.28 41.6 -12.14 41.99 C-18.63 41.61 -24.28 39.01 -29.04 34.61 C-33.45 29.64 -35.63 25.58 -35.46 18.87 C-34.58 11.85 -31.73 5.78 -26.14 1.36 C-17.5 -4.36 -9.24 -5.07 0 0 Z " fill="#000002" transform="translate(755.14453125,286.63671875)"/>
<path d="M0 0 C4.82 2.5 8.02 5.53 11 10 C11.31 13.88 11.31 13.88 11 17 C5.36 19.11 -0.22 20.56 -6.12 21.69 C-6.79 21.82 -7.46 21.95 -8.15 22.09 C-18.89 24.06 -18.89 24.06 -23 22 C-22.45 13.42 -20.66 7.87 -14 2 C-9.49 -1.76 -5.45 -1.41 0 0 Z " fill="#000002" transform="translate(887,271)"/>
</svg>
